<?xml version="1.0" encoding="UTF-8" standalone="no"?>
<!DOCTYPE svg PUBLIC "-//W3C//DTD SVG 1.1//EN"
 "http://www.w3.org/Graphics/SVG/1.1/DTD/svg11.dtd">
<!-- Generated by graphviz version 13.0.1 (20250615.1724)
 -->
<!-- Title: Routing Diagram Pages: 1 -->
<svg width="420pt" height="698pt"
 viewBox="0.00 0.00 420.00 698.00" xmlns="http://www.w3.org/2000/svg" xmlns:xlink="http://www.w3.org/1999/xlink">
<g id="graph0" class="graph" transform="scale(1 1) rotate(0) translate(144 554.4)">
<title>Routing Diagram</title>
<polygon fill="white" stroke="none" points="-144,144 -144,-554.4 276,-554.4 276,144 -144,144"/>
<text xml:space="preserve" text-anchor="middle" x="66" y="-5.75" font-family="Sans-Serif" font-size="10.00" fill="#2d3436">Routing Diagram</text>
<g id="clust1" class="cluster">
<title>cluster_Device: ex3300</title>
<path fill="#e5f5fd" stroke="#aeb6be" d="M20,-27.25C20,-27.25 112,-27.25 112,-27.25 118,-27.25 124,-33.25 124,-39.25 124,-39.25 124,-390.4 124,-390.4 124,-396.4 118,-402.4 112,-402.4 112,-402.4 20,-402.4 20,-402.4 14,-402.4 8,-396.4 8,-390.4 8,-390.4 8,-39.25 8,-39.25 8,-33.25 14,-27.25 20,-27.25"/>
<text xml:space="preserve" text-anchor="middle" x="57.62" y="-387" font-family="Sans-Serif" font-size="12.00" fill="#2d3436">Device: ex3300</text>
</g>
<!-- 7876300b98cc451c8145456fd27069ad -->
<g id="node1" class="node">
<title>7876300b98cc451c8145456fd27069ad</title>
<image xlink:href="/Users/snewsted/projects/juniper-config-melter/.venv/lib/python3.12/site-packages/resources/generic/network/router.png" width="100.8px" height="100.8px" preserveAspectRatio="xMinYMin meet" x="15.6" y="-355.65"/>
<text xml:space="preserve" text-anchor="middle" x="66" y="-238" font-family="Sans-Serif" font-size="13.00" fill="#2d3436">ex3300</text>
</g>
<!-- 9686d3420d894326b8442805e7e9c200 -->
<g id="node2" class="node">
<title>9686d3420d894326b8442805e7e9c200</title>
<image xlink:href="/Users/snewsted/projects/juniper-config-melter/.venv/lib/python3.12/site-packages/resources/generic/network/switch.png" width="100.8px" height="100.8px" preserveAspectRatio="xMinYMin meet" x="15.6" y="-168.45"/>
<text xml:space="preserve" text-anchor="middle" x="66" y="-49.9" font-family="Sans-Serif" font-size="13.00" fill="#2d3436">0.0.0.0/0</text>
<text xml:space="preserve" text-anchor="middle" x="66" y="-36.4" font-family="Sans-Serif" font-size="13.00" fill="#2d3436">via 192.168.254.254</text>
</g>
<!-- 7876300b98cc451c8145456fd27069ad&#45;&gt;9686d3420d894326b8442805e7e9c200 -->
<g id="edge1" class="edge">
<title>7876300b98cc451c8145456fd27069ad&#45;&gt;9686d3420d894326b8442805e7e9c200</title>
<path fill="none" stroke="#7b8894" d="M66,-236.87C66,-236.87 66,-212.07 66,-212.07"/>
<polygon fill="#7b8894" stroke="#7b8894" points="69.5,-212.07 66,-202.07 62.5,-212.07 69.5,-212.07"/>
</g>
</g>
</svg>
