<?xml version="1.0" encoding="UTF-8" standalone="no"?>
<!DOCTYPE svg PUBLIC "-//W3C//DTD SVG 1.1//EN"
 "http://www.w3.org/Graphics/SVG/1.1/DTD/svg11.dtd">
<!-- Generated by graphviz version 13.0.1 (20250615.1724)
 -->
<!-- Title: Network Overview Pages: 1 -->
<svg width="666pt" height="698pt"
 viewBox="0.00 0.00 666.00 698.00" xmlns="http://www.w3.org/2000/svg" xmlns:xlink="http://www.w3.org/1999/xlink">
<g id="graph0" class="graph" transform="scale(1 1) rotate(0) translate(144 554.4)">
<title>Network Overview</title>
<polygon fill="white" stroke="none" points="-144,144 -144,-554.4 522,-554.4 522,144 -144,144"/>
<text xml:space="preserve" text-anchor="middle" x="189" y="-5.75" font-family="Sans-Serif" font-size="10.00" fill="#2d3436">Network Overview</text>
<g id="clust1" class="cluster">
<title>cluster_Device: ex3300</title>
<path fill="#e5f5fd" stroke="#aeb6be" d="M20,-27.25C20,-27.25 358,-27.25 358,-27.25 364,-27.25 370,-33.25 370,-39.25 370,-39.25 370,-390.4 370,-390.4 370,-396.4 364,-402.4 358,-402.4 358,-402.4 20,-402.4 20,-402.4 14,-402.4 8,-396.4 8,-390.4 8,-390.4 8,-39.25 8,-39.25 8,-33.25 14,-27.25 20,-27.25"/>
<text xml:space="preserve" text-anchor="middle" x="57.62" y="-387" font-family="Sans-Serif" font-size="12.00" fill="#2d3436">Device: ex3300</text>
</g>
<!-- c2da97b662084a729e6a351d3cedcdde -->
<g id="node1" class="node">
<title>c2da97b662084a729e6a351d3cedcdde</title>
<image xlink:href="/Users/snewsted/projects/juniper-config-melter/.venv/lib/python3.12/site-packages/resources/generic/network/router.png" width="100.8px" height="100.8px" preserveAspectRatio="xMinYMin meet" x="138.6" y="-355.65"/>
<text xml:space="preserve" text-anchor="middle" x="189" y="-238" font-family="Sans-Serif" font-size="13.00" fill="#2d3436">ex3300</text>
</g>
<!-- f10ea0726fae4eee9c5c408043e663c2 -->
<g id="node2" class="node">
<title>f10ea0726fae4eee9c5c408043e663c2</title>
<image xlink:href="/Users/snewsted/projects/juniper-config-melter/.venv/lib/python3.12/site-packages/resources/generic/network/switch.png" width="100.8px" height="100.8px" preserveAspectRatio="xMinYMin meet" x="15.6" y="-168.45"/>
<text xml:space="preserve" text-anchor="middle" x="66" y="-49.9" font-family="Sans-Serif" font-size="13.00" fill="#2d3436">vlan</text>
<text xml:space="preserve" text-anchor="middle" x="66" y="-36.4" font-family="Sans-Serif" font-size="13.00" fill="#2d3436">192.168.254.9/24</text>
</g>
<!-- c2da97b662084a729e6a351d3cedcdde&#45;&gt;f10ea0726fae4eee9c5c408043e663c2 -->
<g id="edge1" class="edge">
<title>c2da97b662084a729e6a351d3cedcdde&#45;&gt;f10ea0726fae4eee9c5c408043e663c2</title>
<path fill="none" stroke="#7b8894" d="M138.62,-305.25C104.65,-305.25 66,-305.25 66,-305.25 66,-305.25 66,-212.22 66,-212.22"/>
<polygon fill="#7b8894" stroke="#7b8894" points="69.5,-212.22 66,-202.22 62.5,-212.22 69.5,-212.22"/>
</g>
<!-- 7cbfef20bdd648a2aafc7436a4a31619 -->
<g id="node3" class="node">
<title>7cbfef20bdd648a2aafc7436a4a31619</title>
<image xlink:href="/Users/snewsted/projects/juniper-config-melter/.venv/lib/python3.12/site-packages/resources/generic/network/switch.png" width="100.8px" height="100.8px" preserveAspectRatio="xMinYMin meet" x="138.6" y="-168.45"/>
<text xml:space="preserve" text-anchor="middle" x="189" y="-49.9" font-family="Sans-Serif" font-size="13.00" fill="#2d3436">VLAN 200</text>
<text xml:space="preserve" text-anchor="middle" x="189" y="-36.4" font-family="Sans-Serif" font-size="13.00" fill="#2d3436">newlab200</text>
</g>
<!-- c2da97b662084a729e6a351d3cedcdde&#45;&gt;7cbfef20bdd648a2aafc7436a4a31619 -->
<g id="edge2" class="edge">
<title>c2da97b662084a729e6a351d3cedcdde&#45;&gt;7cbfef20bdd648a2aafc7436a4a31619</title>
<path fill="none" stroke="#7b8894" d="M189,-236.87C189,-236.87 189,-212.07 189,-212.07"/>
<polygon fill="#7b8894" stroke="#7b8894" points="192.5,-212.07 189,-202.07 185.5,-212.07 192.5,-212.07"/>
</g>
<!-- cb7be9d78e2148ad84e0ae6602515ee9 -->
<g id="node4" class="node">
<title>cb7be9d78e2148ad84e0ae6602515ee9</title>
<image xlink:href="/Users/snewsted/projects/juniper-config-melter/.venv/lib/python3.12/site-packages/resources/generic/network/switch.png" width="100.8px" height="100.8px" preserveAspectRatio="xMinYMin meet" x="261.6" y="-168.45"/>
<text xml:space="preserve" text-anchor="middle" x="312" y="-49.9" font-family="Sans-Serif" font-size="13.00" fill="#2d3436">VLAN 4000</text>
<text xml:space="preserve" text-anchor="middle" x="312" y="-36.4" font-family="Sans-Serif" font-size="13.00" fill="#2d3436">oob</text>
</g>
<!-- c2da97b662084a729e6a351d3cedcdde&#45;&gt;cb7be9d78e2148ad84e0ae6602515ee9 -->
<g id="edge3" class="edge">
<title>c2da97b662084a729e6a351d3cedcdde&#45;&gt;cb7be9d78e2148ad84e0ae6602515ee9</title>
<path fill="none" stroke="#7b8894" d="M239.38,-305.25C273.35,-305.25 312,-305.25 312,-305.25 312,-305.25 312,-212.22 312,-212.22"/>
<polygon fill="#7b8894" stroke="#7b8894" points="315.5,-212.22 312,-202.22 308.5,-212.22 315.5,-212.22"/>
</g>
</g>
</svg>
