<?xml version="1.0" encoding="UTF-8" standalone="no"?>
<!DOCTYPE svg PUBLIC "-//W3C//DTD SVG 1.1//EN"
 "http://www.w3.org/Graphics/SVG/1.1/DTD/svg11.dtd">
<!-- Generated by graphviz version 13.0.1 (20250615.1724)
 -->
<!-- Title: VLAN Diagram Pages: 1 -->
<svg width="610pt" height="1871pt"
 viewBox="0.00 0.00 610.00 1871.00" xmlns="http://www.w3.org/2000/svg" xmlns:xlink="http://www.w3.org/1999/xlink">
<g id="graph0" class="graph" transform="scale(1 1) rotate(0) translate(144 1727.25)">
<title>VLAN Diagram</title>
<polygon fill="white" stroke="none" points="-144,144 -144,-1727.25 465.7,-1727.25 465.7,144 -144,144"/>
<text xml:space="preserve" text-anchor="middle" x="160.85" y="-5.75" font-family="Sans-Serif" font-size="10.00" fill="#2d3436">VLAN Diagram</text>
<g id="clust1" class="cluster">
<title>cluster_Device: ex3300</title>
<path fill="#e5f5fd" stroke="#aeb6be" d="M20,-27.25C20,-27.25 308.8,-27.25 308.8,-27.25 314.8,-27.25 320.8,-33.25 320.8,-39.25 320.8,-39.25 320.8,-1563.25 320.8,-1563.25 320.8,-1569.25 314.8,-1575.25 308.8,-1575.25 308.8,-1575.25 20,-1575.25 20,-1575.25 14,-1575.25 8,-1569.25 8,-1563.25 8,-1563.25 8,-39.25 8,-39.25 8,-33.25 14,-27.25 20,-27.25"/>
<text xml:space="preserve" text-anchor="middle" x="57.62" y="-1559.85" font-family="Sans-Serif" font-size="12.00" fill="#2d3436">Device: ex3300</text>
</g>
<g id="clust2" class="cluster">
<title>cluster_newlab200 Interfaces</title>
<path fill="#ebf3e7" stroke="#aeb6be" d="M194.8,-274.25C194.8,-274.25 300.8,-274.25 300.8,-274.25 306.8,-274.25 312.8,-280.25 312.8,-286.25 312.8,-286.25 312.8,-1128.25 312.8,-1128.25 312.8,-1134.25 306.8,-1140.25 300.8,-1140.25 300.8,-1140.25 194.8,-1140.25 194.8,-1140.25 188.8,-1140.25 182.8,-1134.25 182.8,-1128.25 182.8,-1128.25 182.8,-286.25 182.8,-286.25 182.8,-280.25 188.8,-274.25 194.8,-274.25"/>
<text xml:space="preserve" text-anchor="middle" x="247.8" y="-1124.85" font-family="Sans-Serif" font-size="12.00" fill="#2d3436">newlab200 Interfaces</text>
</g>
<g id="clust3" class="cluster">
<title>cluster_oob Interfaces</title>
<path fill="#ebf3e7" stroke="#aeb6be" d="M200.9,-1148.25C200.9,-1148.25 293.7,-1148.25 293.7,-1148.25 299.7,-1148.25 305.7,-1154.25 305.7,-1160.25 305.7,-1160.25 305.7,-1534.25 305.7,-1534.25 305.7,-1540.25 299.7,-1546.25 293.7,-1546.25 293.7,-1546.25 200.9,-1546.25 200.9,-1546.25 194.9,-1546.25 188.9,-1540.25 188.9,-1534.25 188.9,-1534.25 188.9,-1160.25 188.9,-1160.25 188.9,-1154.25 194.9,-1148.25 200.9,-1148.25"/>
<text xml:space="preserve" text-anchor="middle" x="234.4" y="-1530.85" font-family="Sans-Serif" font-size="12.00" fill="#2d3436">oob Interfaces</text>
</g>
<g id="clust4" class="cluster">
<title>cluster_Untagged Ports (Default VLAN)</title>
<path fill="#ebf3e7" stroke="#aeb6be" d="M28,-35.25C28,-35.25 293.7,-35.25 293.7,-35.25 299.7,-35.25 305.7,-41.25 305.7,-47.25 305.7,-47.25 305.7,-254.25 305.7,-254.25 305.7,-260.25 299.7,-266.25 293.7,-266.25 293.7,-266.25 28,-266.25 28,-266.25 22,-266.25 16,-260.25 16,-254.25 16,-254.25 16,-47.25 16,-47.25 16,-41.25 22,-35.25 28,-35.25"/>
<text xml:space="preserve" text-anchor="middle" x="107.62" y="-250.85" font-family="Sans-Serif" font-size="12.00" fill="#2d3436">Untagged Ports (Default VLAN)</text>
</g>
<!-- f18e751937f447a298ad9b135aa1b077 -->
<g id="node1" class="node">
<title>f18e751937f447a298ad9b135aa1b077</title>
<polygon fill="lightcoral" stroke="none" points="124.8,-808.45 24,-808.45 24,-614.05 124.8,-614.05 124.8,-808.45"/>
<image xlink:href="/Users/snewsted/projects/juniper-config-melter/.venv/lib/python3.12/site-packages/resources/generic/network/switch.png" width="100.8px" height="100.8px" preserveAspectRatio="xMinYMin meet" x="24" y="-761.65"/>
<text xml:space="preserve" text-anchor="middle" x="74.4" y="-642.2" font-family="Sans-Serif" font-size="13.00">VLAN 200</text>
<text xml:space="preserve" text-anchor="middle" x="74.4" y="-628.7" font-family="Sans-Serif" font-size="13.00">newlab200</text>
<text xml:space="preserve" text-anchor="middle" x="74.4" y="-615.2" font-family="Sans-Serif" font-size="13.00">vlan 200 for the lab</text>
</g>
<!-- cf79801e9bee4a60a5cf27fb7131b9dc -->
<g id="node2" class="node">
<title>cf79801e9bee4a60a5cf27fb7131b9dc</title>
<image xlink:href="/Users/snewsted/projects/juniper-config-melter/.venv/lib/python3.12/site-packages/resources/generic/network/switch.png" width="100.8px" height="100.8px" preserveAspectRatio="xMinYMin meet" x="196.9" y="-415.65"/>
<text xml:space="preserve" text-anchor="middle" x="247.3" y="-297.1" font-family="Sans-Serif" font-size="13.00" fill="#2d3436">ge&#45;0/0/31</text>
<text xml:space="preserve" text-anchor="middle" x="247.3" y="-283.6" font-family="Sans-Serif" font-size="13.00" fill="#2d3436">port 31 for the newlab200 vlan</text>
</g>
<!-- f18e751937f447a298ad9b135aa1b077&#45;&gt;cf79801e9bee4a60a5cf27fb7131b9dc -->
<g id="edge1" class="edge">
<title>f18e751937f447a298ad9b135aa1b077&#45;&gt;cf79801e9bee4a60a5cf27fb7131b9dc</title>
<path fill="none" stroke="#7b8894" d="M74.8,-614.41C74.8,-512.05 74.8,-365.25 74.8,-365.25 74.8,-365.25 185.43,-365.25 185.43,-365.25"/>
<polygon fill="#7b8894" stroke="#7b8894" points="185.43,-368.75 195.43,-365.25 185.43,-361.75 185.43,-368.75"/>
</g>
<!-- 627458b0062f47918b505c8851d517e0 -->
<g id="node3" class="node">
<title>627458b0062f47918b505c8851d517e0</title>
<image xlink:href="/Users/snewsted/projects/juniper-config-melter/.venv/lib/python3.12/site-packages/resources/generic/network/switch.png" width="100.8px" height="100.8px" preserveAspectRatio="xMinYMin meet" x="196.9" y="-595.65"/>
<text xml:space="preserve" text-anchor="middle" x="247.3" y="-478" font-family="Sans-Serif" font-size="13.00" fill="#2d3436">ge&#45;0/0/32</text>
</g>
<!-- f18e751937f447a298ad9b135aa1b077&#45;&gt;627458b0062f47918b505c8851d517e0 -->
<g id="edge2" class="edge">
<title>f18e751937f447a298ad9b135aa1b077&#45;&gt;627458b0062f47918b505c8851d517e0</title>
<path fill="none" stroke="#7b8894" d="M124.73,-628.45C175.61,-628.45 246.8,-628.45 246.8,-628.45 246.8,-628.45 246.8,-625.09 246.8,-625.09"/>
<polygon fill="#7b8894" stroke="#7b8894" points="250.3,-625.09 246.8,-615.09 243.3,-625.09 250.3,-625.09"/>
</g>
<!-- 17a3202744a74007800831e749845a88 -->
<g id="node4" class="node">
<title>17a3202744a74007800831e749845a88</title>
<image xlink:href="/Users/snewsted/projects/juniper-config-melter/.venv/lib/python3.12/site-packages/resources/generic/network/switch.png" width="100.8px" height="100.8px" preserveAspectRatio="xMinYMin meet" x="196.9" y="-761.65"/>
<text xml:space="preserve" text-anchor="middle" x="247.3" y="-644" font-family="Sans-Serif" font-size="13.00" fill="#2d3436">ge&#45;0/0/33</text>
</g>
<!-- f18e751937f447a298ad9b135aa1b077&#45;&gt;17a3202744a74007800831e749845a88 -->
<g id="edge3" class="edge">
<title>f18e751937f447a298ad9b135aa1b077&#45;&gt;17a3202744a74007800831e749845a88</title>
<path fill="none" stroke="#7b8894" d="M124.41,-711.25C124.41,-711.25 185.59,-711.25 185.59,-711.25"/>
<polygon fill="#7b8894" stroke="#7b8894" points="185.59,-714.75 195.59,-711.25 185.59,-707.75 185.59,-714.75"/>
</g>
<!-- 621e6530b3d24be59418da429057b888 -->
<g id="node5" class="node">
<title>621e6530b3d24be59418da429057b888</title>
<image xlink:href="/Users/snewsted/projects/juniper-config-melter/.venv/lib/python3.12/site-packages/resources/generic/network/switch.png" width="100.8px" height="100.8px" preserveAspectRatio="xMinYMin meet" x="196.9" y="-927.65"/>
<text xml:space="preserve" text-anchor="middle" x="247.3" y="-810" font-family="Sans-Serif" font-size="13.00" fill="#2d3436">ge&#45;0/0/34</text>
</g>
<!-- f18e751937f447a298ad9b135aa1b077&#45;&gt;621e6530b3d24be59418da429057b888 -->
<g id="edge4" class="edge">
<title>f18e751937f447a298ad9b135aa1b077&#45;&gt;621e6530b3d24be59418da429057b888</title>
<path fill="none" stroke="#7b8894" d="M124.73,-794.05C175.61,-794.05 246.8,-794.05 246.8,-794.05 246.8,-794.05 246.8,-797.41 246.8,-797.41"/>
<polygon fill="#7b8894" stroke="#7b8894" points="243.3,-797.41 246.8,-807.41 250.3,-797.41 243.3,-797.41"/>
</g>
<!-- c94c7d1d58384047883ade7352daa681 -->
<g id="node6" class="node">
<title>c94c7d1d58384047883ade7352daa681</title>
<image xlink:href="/Users/snewsted/projects/juniper-config-melter/.venv/lib/python3.12/site-packages/resources/generic/network/switch.png" width="100.8px" height="100.8px" preserveAspectRatio="xMinYMin meet" x="196.9" y="-1093.65"/>
<text xml:space="preserve" text-anchor="middle" x="247.3" y="-976" font-family="Sans-Serif" font-size="13.00" fill="#2d3436">ge&#45;0/0/35</text>
</g>
<!-- f18e751937f447a298ad9b135aa1b077&#45;&gt;c94c7d1d58384047883ade7352daa681 -->
<g id="edge5" class="edge">
<title>f18e751937f447a298ad9b135aa1b077&#45;&gt;c94c7d1d58384047883ade7352daa681</title>
<path fill="none" stroke="#7b8894" d="M74.8,-808.17C74.8,-906.16 74.8,-1043.25 74.8,-1043.25 74.8,-1043.25 185.43,-1043.25 185.43,-1043.25"/>
<polygon fill="#7b8894" stroke="#7b8894" points="185.43,-1046.75 195.43,-1043.25 185.43,-1039.75 185.43,-1046.75"/>
</g>
<!-- ec78dc8d76444650996778b85d142cee -->
<g id="node7" class="node">
<title>ec78dc8d76444650996778b85d142cee</title>
<polygon fill="moccasin" stroke="none" points="124.8,-1433.45 24,-1433.45 24,-1239.05 124.8,-1239.05 124.8,-1433.45"/>
<image xlink:href="/Users/snewsted/projects/juniper-config-melter/.venv/lib/python3.12/site-packages/resources/generic/network/switch.png" width="100.8px" height="100.8px" preserveAspectRatio="xMinYMin meet" x="24" y="-1386.65"/>
<text xml:space="preserve" text-anchor="middle" x="74.4" y="-1267.2" font-family="Sans-Serif" font-size="13.00">VLAN 4000</text>
<text xml:space="preserve" text-anchor="middle" x="74.4" y="-1253.7" font-family="Sans-Serif" font-size="13.00">oob</text>
<text xml:space="preserve" text-anchor="middle" x="74.4" y="-1240.2" font-family="Sans-Serif" font-size="13.00">vlan 4000 for OOB</text>
</g>
<!-- d884c2a1731f4466a47d711ce2f91ee7 -->
<g id="node8" class="node">
<title>d884c2a1731f4466a47d711ce2f91ee7</title>
<image xlink:href="/Users/snewsted/projects/juniper-config-melter/.venv/lib/python3.12/site-packages/resources/generic/network/switch.png" width="100.8px" height="100.8px" preserveAspectRatio="xMinYMin meet" x="196.9" y="-1289.65"/>
<text xml:space="preserve" text-anchor="middle" x="247.3" y="-1171.1" font-family="Sans-Serif" font-size="13.00" fill="#2d3436">ge&#45;0/0/24</text>
<text xml:space="preserve" text-anchor="middle" x="247.3" y="-1157.6" font-family="Sans-Serif" font-size="13.00" fill="#2d3436">r610 &#45; oob &#45; idrac</text>
</g>
<!-- ec78dc8d76444650996778b85d142cee&#45;&gt;d884c2a1731f4466a47d711ce2f91ee7 -->
<g id="edge6" class="edge">
<title>ec78dc8d76444650996778b85d142cee&#45;&gt;d884c2a1731f4466a47d711ce2f91ee7</title>
<path fill="none" stroke="#7b8894" d="M124.41,-1280.55C124.41,-1280.55 185.59,-1280.55 185.59,-1280.55"/>
<polygon fill="#7b8894" stroke="#7b8894" points="185.59,-1284.05 195.59,-1280.55 185.59,-1277.05 185.59,-1284.05"/>
</g>
<!-- e2ca210df91449b0b39f9c32da43734f -->
<g id="node9" class="node">
<title>e2ca210df91449b0b39f9c32da43734f</title>
<image xlink:href="/Users/snewsted/projects/juniper-config-melter/.venv/lib/python3.12/site-packages/resources/generic/network/switch.png" width="100.8px" height="100.8px" preserveAspectRatio="xMinYMin meet" x="196.9" y="-1484.65"/>
<text xml:space="preserve" text-anchor="middle" x="247.3" y="-1366.1" font-family="Sans-Serif" font-size="13.00" fill="#2d3436">ge&#45;0/0/25</text>
<text xml:space="preserve" text-anchor="middle" x="247.3" y="-1352.6" font-family="Sans-Serif" font-size="13.00" fill="#2d3436">orange &#45; oob &#45; ipmi</text>
</g>
<!-- ec78dc8d76444650996778b85d142cee&#45;&gt;e2ca210df91449b0b39f9c32da43734f -->
<g id="edge7" class="edge">
<title>ec78dc8d76444650996778b85d142cee&#45;&gt;e2ca210df91449b0b39f9c32da43734f</title>
<path fill="none" stroke="#7b8894" d="M124.41,-1392.45C124.41,-1392.45 185.59,-1392.45 185.59,-1392.45"/>
<polygon fill="#7b8894" stroke="#7b8894" points="185.59,-1395.95 195.59,-1392.45 185.59,-1388.95 185.59,-1395.95"/>
</g>
<!-- 8f6c1644ccfb4d0ea7824f3ca3a17d3b -->
<g id="node10" class="node">
<title>8f6c1644ccfb4d0ea7824f3ca3a17d3b</title>
<polygon fill="lightsteelblue" stroke="none" points="124.8,-223.05 24,-223.05 24,-57.45 124.8,-57.45 124.8,-223.05"/>
<image xlink:href="/Users/snewsted/projects/juniper-config-melter/.venv/lib/python3.12/site-packages/resources/generic/network/switch.png" width="100.8px" height="100.8px" preserveAspectRatio="xMinYMin meet" x="24" y="-190.65"/>
<text xml:space="preserve" text-anchor="middle" x="74.4" y="-72.1" font-family="Sans-Serif" font-size="13.00">Default VLAN</text>
<text xml:space="preserve" text-anchor="middle" x="74.4" y="-58.6" font-family="Sans-Serif" font-size="13.00">(Untagged)</text>
</g>
<!-- eae32ebae37f4b2993dbaa25f5e881df -->
<g id="node11" class="node">
<title>eae32ebae37f4b2993dbaa25f5e881df</title>
<image xlink:href="/Users/snewsted/projects/juniper-config-melter/.venv/lib/python3.12/site-packages/resources/generic/network/switch.png" width="100.8px" height="100.8px" preserveAspectRatio="xMinYMin meet" x="196.9" y="-190.65"/>
<text xml:space="preserve" text-anchor="middle" x="247.3" y="-71.2" font-family="Sans-Serif" font-size="13.00" fill="#2d3436">vlan</text>
<text xml:space="preserve" text-anchor="middle" x="247.3" y="-57.7" font-family="Sans-Serif" font-size="13.00" fill="#2d3436">192.168.254.9/24</text>
<text xml:space="preserve" text-anchor="middle" x="247.3" y="-44.2" font-family="Sans-Serif" font-size="13.00" fill="#2d3436">this is the normal network</text>
</g>
<!-- 8f6c1644ccfb4d0ea7824f3ca3a17d3b&#45;&gt;eae32ebae37f4b2993dbaa25f5e881df -->
<g id="edge8" class="edge">
<title>8f6c1644ccfb4d0ea7824f3ca3a17d3b&#45;&gt;eae32ebae37f4b2993dbaa25f5e881df</title>
<path fill="none" stroke="#7b8894" d="M124.41,-140.25C124.41,-140.25 185.59,-140.25 185.59,-140.25"/>
<polygon fill="#7b8894" stroke="#7b8894" points="185.59,-143.75 195.59,-140.25 185.59,-136.75 185.59,-143.75"/>
</g>
</g>
</svg>
