<?xml version="1.0" encoding="UTF-8" standalone="no"?>
<!DOCTYPE svg PUBLIC "-//W3C//DTD SVG 1.1//EN"
 "http://www.w3.org/Graphics/SVG/1.1/DTD/svg11.dtd">
<!-- Generated by graphviz version 13.0.1 (20250615.1724)
 -->
<!-- Title: VLAN Diagram Pages: 1 -->
<svg width="610pt" height="1755pt"
 viewBox="0.00 0.00 610.00 1755.00" xmlns="http://www.w3.org/2000/svg" xmlns:xlink="http://www.w3.org/1999/xlink">
<g id="graph0" class="graph" transform="scale(1 1) rotate(0) translate(144 1611.25)">
<title>VLAN Diagram</title>
<polygon fill="white" stroke="none" points="-144,144 -144,-1611.25 465.7,-1611.25 465.7,144 -144,144"/>
<text xml:space="preserve" text-anchor="middle" x="160.85" y="-5.75" font-family="Sans-Serif" font-size="10.00" fill="#2d3436">VLAN Diagram</text>
<g id="clust1" class="cluster">
<title>cluster_Device: ex3300</title>
<path fill="#e5f5fd" stroke="#aeb6be" d="M20,-27.25C20,-27.25 308.8,-27.25 308.8,-27.25 314.8,-27.25 320.8,-33.25 320.8,-39.25 320.8,-39.25 320.8,-1447.25 320.8,-1447.25 320.8,-1453.25 314.8,-1459.25 308.8,-1459.25 308.8,-1459.25 20,-1459.25 20,-1459.25 14,-1459.25 8,-1453.25 8,-1447.25 8,-1447.25 8,-39.25 8,-39.25 8,-33.25 14,-27.25 20,-27.25"/>
<text xml:space="preserve" text-anchor="middle" x="57.62" y="-1443.85" font-family="Sans-Serif" font-size="12.00" fill="#2d3436">Device: ex3300</text>
</g>
<g id="clust2" class="cluster">
<title>cluster_newlab200 Interfaces</title>
<path fill="#ebf3e7" stroke="#aeb6be" d="M194.8,-246.25C194.8,-246.25 300.8,-246.25 300.8,-246.25 306.8,-246.25 312.8,-252.25 312.8,-258.25 312.8,-258.25 312.8,-1071.25 312.8,-1071.25 312.8,-1077.25 306.8,-1083.25 300.8,-1083.25 300.8,-1083.25 194.8,-1083.25 194.8,-1083.25 188.8,-1083.25 182.8,-1077.25 182.8,-1071.25 182.8,-1071.25 182.8,-258.25 182.8,-258.25 182.8,-252.25 188.8,-246.25 194.8,-246.25"/>
<text xml:space="preserve" text-anchor="middle" x="247.8" y="-1067.85" font-family="Sans-Serif" font-size="12.00" fill="#2d3436">newlab200 Interfaces</text>
</g>
<g id="clust3" class="cluster">
<title>cluster_oob Interfaces</title>
<path fill="#ebf3e7" stroke="#aeb6be" d="M200.9,-1091.25C200.9,-1091.25 293.7,-1091.25 293.7,-1091.25 299.7,-1091.25 305.7,-1097.25 305.7,-1103.25 305.7,-1103.25 305.7,-1418.25 305.7,-1418.25 305.7,-1424.25 299.7,-1430.25 293.7,-1430.25 293.7,-1430.25 200.9,-1430.25 200.9,-1430.25 194.9,-1430.25 188.9,-1424.25 188.9,-1418.25 188.9,-1418.25 188.9,-1103.25 188.9,-1103.25 188.9,-1097.25 194.9,-1091.25 200.9,-1091.25"/>
<text xml:space="preserve" text-anchor="middle" x="234.4" y="-1414.85" font-family="Sans-Serif" font-size="12.00" fill="#2d3436">oob Interfaces</text>
</g>
<g id="clust4" class="cluster">
<title>cluster_Untagged Ports (Default VLAN)</title>
<path fill="#ebf3e7" stroke="#aeb6be" d="M28,-35.25C28,-35.25 293.7,-35.25 293.7,-35.25 299.7,-35.25 305.7,-41.25 305.7,-47.25 305.7,-47.25 305.7,-226.25 305.7,-226.25 305.7,-232.25 299.7,-238.25 293.7,-238.25 293.7,-238.25 28,-238.25 28,-238.25 22,-238.25 16,-232.25 16,-226.25 16,-226.25 16,-47.25 16,-47.25 16,-41.25 22,-35.25 28,-35.25"/>
<text xml:space="preserve" text-anchor="middle" x="107.62" y="-222.85" font-family="Sans-Serif" font-size="12.00" fill="#2d3436">Untagged Ports (Default VLAN)</text>
</g>
<!-- 65b28e90261740cdb612ebbcc3d5ff2d -->
<g id="node1" class="node">
<title>65b28e90261740cdb612ebbcc3d5ff2d</title>
<image xlink:href="/Users/snewsted/projects/juniper-config-melter/.venv/lib/python3.12/site-packages/resources/generic/network/switch.png" width="100.8px" height="100.8px" preserveAspectRatio="xMinYMin meet" x="24" y="-704.65"/>
<text xml:space="preserve" text-anchor="middle" x="74.4" y="-585.2" font-family="Sans-Serif" font-size="13.00" fill="#2d3436">VLAN 200</text>
<text xml:space="preserve" text-anchor="middle" x="74.4" y="-571.7" font-family="Sans-Serif" font-size="13.00" fill="#2d3436">newlab200</text>
<text xml:space="preserve" text-anchor="middle" x="74.4" y="-558.2" font-family="Sans-Serif" font-size="13.00" fill="#2d3436">vlan 200 for the lab</text>
</g>
<!-- d2f11461c3e14c8f8d57c1c70d0242fc -->
<g id="node2" class="node">
<title>d2f11461c3e14c8f8d57c1c70d0242fc</title>
<image xlink:href="/Users/snewsted/projects/juniper-config-melter/.venv/lib/python3.12/site-packages/resources/generic/network/switch.png" width="100.8px" height="100.8px" preserveAspectRatio="xMinYMin meet" x="196.9" y="-372.65"/>
<text xml:space="preserve" text-anchor="middle" x="247.3" y="-255" font-family="Sans-Serif" font-size="13.00" fill="#2d3436">ge&#45;0/0/31</text>
</g>
<!-- 65b28e90261740cdb612ebbcc3d5ff2d&#45;&gt;d2f11461c3e14c8f8d57c1c70d0242fc -->
<g id="edge1" class="edge">
<title>65b28e90261740cdb612ebbcc3d5ff2d&#45;&gt;d2f11461c3e14c8f8d57c1c70d0242fc</title>
<path fill="none" stroke="#7b8894" d="M74.8,-557.33C74.8,-459.34 74.8,-322.25 74.8,-322.25 74.8,-322.25 185.43,-322.25 185.43,-322.25"/>
<polygon fill="#7b8894" stroke="#7b8894" points="185.43,-325.75 195.43,-322.25 185.43,-318.75 185.43,-325.75"/>
</g>
<!-- d29c7609a44641909d90a6ba7e3cb714 -->
<g id="node3" class="node">
<title>d29c7609a44641909d90a6ba7e3cb714</title>
<image xlink:href="/Users/snewsted/projects/juniper-config-melter/.venv/lib/python3.12/site-packages/resources/generic/network/switch.png" width="100.8px" height="100.8px" preserveAspectRatio="xMinYMin meet" x="196.9" y="-538.65"/>
<text xml:space="preserve" text-anchor="middle" x="247.3" y="-421" font-family="Sans-Serif" font-size="13.00" fill="#2d3436">ge&#45;0/0/32</text>
</g>
<!-- 65b28e90261740cdb612ebbcc3d5ff2d&#45;&gt;d29c7609a44641909d90a6ba7e3cb714 -->
<g id="edge2" class="edge">
<title>65b28e90261740cdb612ebbcc3d5ff2d&#45;&gt;d29c7609a44641909d90a6ba7e3cb714</title>
<path fill="none" stroke="#7b8894" d="M124.73,-571.45C175.61,-571.45 246.8,-571.45 246.8,-571.45 246.8,-571.45 246.8,-568.09 246.8,-568.09"/>
<polygon fill="#7b8894" stroke="#7b8894" points="250.3,-568.09 246.8,-558.09 243.3,-568.09 250.3,-568.09"/>
</g>
<!-- 15f389363d164ed3bed72a5e978b63f6 -->
<g id="node4" class="node">
<title>15f389363d164ed3bed72a5e978b63f6</title>
<image xlink:href="/Users/snewsted/projects/juniper-config-melter/.venv/lib/python3.12/site-packages/resources/generic/network/switch.png" width="100.8px" height="100.8px" preserveAspectRatio="xMinYMin meet" x="196.9" y="-704.65"/>
<text xml:space="preserve" text-anchor="middle" x="247.3" y="-587" font-family="Sans-Serif" font-size="13.00" fill="#2d3436">ge&#45;0/0/33</text>
</g>
<!-- 65b28e90261740cdb612ebbcc3d5ff2d&#45;&gt;15f389363d164ed3bed72a5e978b63f6 -->
<g id="edge3" class="edge">
<title>65b28e90261740cdb612ebbcc3d5ff2d&#45;&gt;15f389363d164ed3bed72a5e978b63f6</title>
<path fill="none" stroke="#7b8894" d="M124.41,-654.25C124.41,-654.25 185.59,-654.25 185.59,-654.25"/>
<polygon fill="#7b8894" stroke="#7b8894" points="185.59,-657.75 195.59,-654.25 185.59,-650.75 185.59,-657.75"/>
</g>
<!-- aa8e22cb842d45b6a70be2d72f43781f -->
<g id="node5" class="node">
<title>aa8e22cb842d45b6a70be2d72f43781f</title>
<image xlink:href="/Users/snewsted/projects/juniper-config-melter/.venv/lib/python3.12/site-packages/resources/generic/network/switch.png" width="100.8px" height="100.8px" preserveAspectRatio="xMinYMin meet" x="196.9" y="-870.65"/>
<text xml:space="preserve" text-anchor="middle" x="247.3" y="-753" font-family="Sans-Serif" font-size="13.00" fill="#2d3436">ge&#45;0/0/34</text>
</g>
<!-- 65b28e90261740cdb612ebbcc3d5ff2d&#45;&gt;aa8e22cb842d45b6a70be2d72f43781f -->
<g id="edge4" class="edge">
<title>65b28e90261740cdb612ebbcc3d5ff2d&#45;&gt;aa8e22cb842d45b6a70be2d72f43781f</title>
<path fill="none" stroke="#7b8894" d="M124.73,-737.05C175.61,-737.05 246.8,-737.05 246.8,-737.05 246.8,-737.05 246.8,-740.41 246.8,-740.41"/>
<polygon fill="#7b8894" stroke="#7b8894" points="243.3,-740.41 246.8,-750.41 250.3,-740.41 243.3,-740.41"/>
</g>
<!-- 5c5b5f5864444c32b4ed38eafc9dd9e3 -->
<g id="node6" class="node">
<title>5c5b5f5864444c32b4ed38eafc9dd9e3</title>
<image xlink:href="/Users/snewsted/projects/juniper-config-melter/.venv/lib/python3.12/site-packages/resources/generic/network/switch.png" width="100.8px" height="100.8px" preserveAspectRatio="xMinYMin meet" x="196.9" y="-1036.65"/>
<text xml:space="preserve" text-anchor="middle" x="247.3" y="-919" font-family="Sans-Serif" font-size="13.00" fill="#2d3436">ge&#45;0/0/35</text>
</g>
<!-- 65b28e90261740cdb612ebbcc3d5ff2d&#45;&gt;5c5b5f5864444c32b4ed38eafc9dd9e3 -->
<g id="edge5" class="edge">
<title>65b28e90261740cdb612ebbcc3d5ff2d&#45;&gt;5c5b5f5864444c32b4ed38eafc9dd9e3</title>
<path fill="none" stroke="#7b8894" d="M74.8,-751.17C74.8,-849.16 74.8,-986.25 74.8,-986.25 74.8,-986.25 185.43,-986.25 185.43,-986.25"/>
<polygon fill="#7b8894" stroke="#7b8894" points="185.43,-989.75 195.43,-986.25 185.43,-982.75 185.43,-989.75"/>
</g>
<!-- 760cc27122014c5f9725eb5d45733e86 -->
<g id="node7" class="node">
<title>760cc27122014c5f9725eb5d45733e86</title>
<image xlink:href="/Users/snewsted/projects/juniper-config-melter/.venv/lib/python3.12/site-packages/resources/generic/network/switch.png" width="100.8px" height="100.8px" preserveAspectRatio="xMinYMin meet" x="24" y="-1300.65"/>
<text xml:space="preserve" text-anchor="middle" x="74.4" y="-1181.2" font-family="Sans-Serif" font-size="13.00" fill="#2d3436">VLAN 4000</text>
<text xml:space="preserve" text-anchor="middle" x="74.4" y="-1167.7" font-family="Sans-Serif" font-size="13.00" fill="#2d3436">oob</text>
<text xml:space="preserve" text-anchor="middle" x="74.4" y="-1154.2" font-family="Sans-Serif" font-size="13.00" fill="#2d3436">vlan 4000 for OOB</text>
</g>
<!-- fe034dcae8974c11b4769b238e890766 -->
<g id="node8" class="node">
<title>fe034dcae8974c11b4769b238e890766</title>
<image xlink:href="/Users/snewsted/projects/juniper-config-melter/.venv/lib/python3.12/site-packages/resources/generic/network/switch.png" width="100.8px" height="100.8px" preserveAspectRatio="xMinYMin meet" x="196.9" y="-1217.65"/>
<text xml:space="preserve" text-anchor="middle" x="247.3" y="-1100" font-family="Sans-Serif" font-size="13.00" fill="#2d3436">ge&#45;0/0/24</text>
</g>
<!-- 760cc27122014c5f9725eb5d45733e86&#45;&gt;fe034dcae8974c11b4769b238e890766 -->
<g id="edge6" class="edge">
<title>760cc27122014c5f9725eb5d45733e86&#45;&gt;fe034dcae8974c11b4769b238e890766</title>
<path fill="none" stroke="#7b8894" d="M124.41,-1194.35C124.41,-1194.35 185.59,-1194.35 185.59,-1194.35"/>
<polygon fill="#7b8894" stroke="#7b8894" points="185.59,-1197.85 195.59,-1194.35 185.59,-1190.85 185.59,-1197.85"/>
</g>
<!-- 8d2cd0743f3443228d66be6ca513783e -->
<g id="node9" class="node">
<title>8d2cd0743f3443228d66be6ca513783e</title>
<image xlink:href="/Users/snewsted/projects/juniper-config-melter/.venv/lib/python3.12/site-packages/resources/generic/network/switch.png" width="100.8px" height="100.8px" preserveAspectRatio="xMinYMin meet" x="196.9" y="-1383.65"/>
<text xml:space="preserve" text-anchor="middle" x="247.3" y="-1266" font-family="Sans-Serif" font-size="13.00" fill="#2d3436">ge&#45;0/0/25</text>
</g>
<!-- 760cc27122014c5f9725eb5d45733e86&#45;&gt;8d2cd0743f3443228d66be6ca513783e -->
<g id="edge7" class="edge">
<title>760cc27122014c5f9725eb5d45733e86&#45;&gt;8d2cd0743f3443228d66be6ca513783e</title>
<path fill="none" stroke="#7b8894" d="M124.41,-1306.15C124.41,-1306.15 185.59,-1306.15 185.59,-1306.15"/>
<polygon fill="#7b8894" stroke="#7b8894" points="185.59,-1309.65 195.59,-1306.15 185.59,-1302.65 185.59,-1309.65"/>
</g>
<!-- 8cbe745b38dd48dda796dba13cec2106 -->
<g id="node10" class="node">
<title>8cbe745b38dd48dda796dba13cec2106</title>
<image xlink:href="/Users/snewsted/projects/juniper-config-melter/.venv/lib/python3.12/site-packages/resources/generic/network/switch.png" width="100.8px" height="100.8px" preserveAspectRatio="xMinYMin meet" x="24" y="-176.65"/>
<text xml:space="preserve" text-anchor="middle" x="74.4" y="-58.1" font-family="Sans-Serif" font-size="13.00" fill="#2d3436">Default VLAN</text>
<text xml:space="preserve" text-anchor="middle" x="74.4" y="-44.6" font-family="Sans-Serif" font-size="13.00" fill="#2d3436">(Untagged)</text>
</g>
<!-- 1a25b9f0d5ec4567a047e9ff2fb71905 -->
<g id="node11" class="node">
<title>1a25b9f0d5ec4567a047e9ff2fb71905</title>
<image xlink:href="/Users/snewsted/projects/juniper-config-melter/.venv/lib/python3.12/site-packages/resources/generic/network/switch.png" width="100.8px" height="100.8px" preserveAspectRatio="xMinYMin meet" x="196.9" y="-176.65"/>
<text xml:space="preserve" text-anchor="middle" x="247.3" y="-59" font-family="Sans-Serif" font-size="13.00" fill="#2d3436">vlan</text>
</g>
<!-- 8cbe745b38dd48dda796dba13cec2106&#45;&gt;1a25b9f0d5ec4567a047e9ff2fb71905 -->
<g id="edge8" class="edge">
<title>8cbe745b38dd48dda796dba13cec2106&#45;&gt;1a25b9f0d5ec4567a047e9ff2fb71905</title>
<path fill="none" stroke="#7b8894" d="M124.41,-126.25C124.41,-126.25 185.59,-126.25 185.59,-126.25"/>
<polygon fill="#7b8894" stroke="#7b8894" points="185.59,-129.75 195.59,-126.25 185.59,-122.75 185.59,-129.75"/>
</g>
</g>
</svg>
