<?xml version="1.0" encoding="UTF-8" standalone="no"?>
<!DOCTYPE svg PUBLIC "-//W3C//DTD SVG 1.1//EN"
 "http://www.w3.org/Graphics/SVG/1.1/DTD/svg11.dtd">
<!-- Generated by graphviz version 13.0.1 (20250615.1724)
 -->
<!-- Title: Interface Diagram Pages: 1 -->
<svg width="453pt" height="11120pt"
 viewBox="0.00 0.00 453.00 11120.00" xmlns="http://www.w3.org/2000/svg" xmlns:xlink="http://www.w3.org/1999/xlink">
<g id="graph0" class="graph" transform="scale(1 1) rotate(0) translate(144 10976.25)">
<title>Interface Diagram</title>
<polygon fill="white" stroke="none" points="-144,144 -144,-10976.25 308.8,-10976.25 308.8,144 -144,144"/>
<text xml:space="preserve" text-anchor="middle" x="82.4" y="-5.75" font-family="Sans-Serif" font-size="10.00" fill="#2d3436">Interface Diagram</text>
<g id="clust1" class="cluster">
<title>cluster_Device: ex3300</title>
<path fill="#e5f5fd" stroke="#aeb6be" d="M20,-27.25C20,-27.25 144.8,-27.25 144.8,-27.25 150.8,-27.25 156.8,-33.25 156.8,-39.25 156.8,-39.25 156.8,-10812.25 156.8,-10812.25 156.8,-10818.25 150.8,-10824.25 144.8,-10824.25 144.8,-10824.25 20,-10824.25 20,-10824.25 14,-10824.25 8,-10818.25 8,-10812.25 8,-10812.25 8,-39.25 8,-39.25 8,-33.25 14,-27.25 20,-27.25"/>
<text xml:space="preserve" text-anchor="middle" x="57.62" y="-10808.85" font-family="Sans-Serif" font-size="12.00" fill="#2d3436">Device: ex3300</text>
</g>
<g id="clust2" class="cluster">
<title>cluster_GE Interfaces</title>
<path fill="#ebf3e7" stroke="#aeb6be" d="M28,-35.25C28,-35.25 136.8,-35.25 136.8,-35.25 142.8,-35.25 148.8,-41.25 148.8,-47.25 148.8,-47.25 148.8,-8628.25 148.8,-8628.25 148.8,-8634.25 142.8,-8640.25 136.8,-8640.25 136.8,-8640.25 28,-8640.25 28,-8640.25 22,-8640.25 16,-8634.25 16,-8628.25 16,-8628.25 16,-47.25 16,-47.25 16,-41.25 22,-35.25 28,-35.25"/>
<text xml:space="preserve" text-anchor="middle" x="60" y="-8624.85" font-family="Sans-Serif" font-size="12.00" fill="#2d3436">GE Interfaces</text>
</g>
<g id="clust3" class="cluster">
<title>cluster_Ports 0&#45;3</title>
<path fill="#ece8f6" stroke="#aeb6be" d="M36,-43.25C36,-43.25 128.8,-43.25 128.8,-43.25 134.8,-43.25 140.8,-49.25 140.8,-55.25 140.8,-55.25 140.8,-1346.25 140.8,-1346.25 140.8,-1352.25 134.8,-1358.25 128.8,-1358.25 128.8,-1358.25 36,-1358.25 36,-1358.25 30,-1358.25 24,-1352.25 24,-1346.25 24,-1346.25 24,-55.25 24,-55.25 24,-49.25 30,-43.25 36,-43.25"/>
<text xml:space="preserve" text-anchor="middle" x="56" y="-1342.85" font-family="Sans-Serif" font-size="12.00" fill="#2d3436">Ports 0&#45;3</text>
</g>
<g id="clust4" class="cluster">
<title>cluster_Ports 4&#45;11</title>
<path fill="#ece8f6" stroke="#aeb6be" d="M36,-1366.25C36,-1366.25 128.8,-1366.25 128.8,-1366.25 134.8,-1366.25 140.8,-1372.25 140.8,-1378.25 140.8,-1378.25 140.8,-2757.25 140.8,-2757.25 140.8,-2763.25 134.8,-2769.25 128.8,-2769.25 128.8,-2769.25 36,-2769.25 36,-2769.25 30,-2769.25 24,-2763.25 24,-2757.25 24,-2757.25 24,-1378.25 24,-1378.25 24,-1372.25 30,-1366.25 36,-1366.25"/>
<text xml:space="preserve" text-anchor="middle" x="58.62" y="-2753.85" font-family="Sans-Serif" font-size="12.00" fill="#2d3436">Ports 4&#45;11</text>
</g>
<g id="clust5" class="cluster">
<title>cluster_Ports 12&#45;19</title>
<path fill="#ece8f6" stroke="#aeb6be" d="M36,-2777.25C36,-2777.25 128.8,-2777.25 128.8,-2777.25 134.8,-2777.25 140.8,-2783.25 140.8,-2789.25 140.8,-2789.25 140.8,-4080.25 140.8,-4080.25 140.8,-4086.25 134.8,-4092.25 128.8,-4092.25 128.8,-4092.25 36,-4092.25 36,-4092.25 30,-4092.25 24,-4086.25 24,-4080.25 24,-4080.25 24,-2789.25 24,-2789.25 24,-2783.25 30,-2777.25 36,-2777.25"/>
<text xml:space="preserve" text-anchor="middle" x="62.75" y="-4076.85" font-family="Sans-Serif" font-size="12.00" fill="#2d3436">Ports 12&#45;19</text>
</g>
<g id="clust6" class="cluster">
<title>cluster_Ports 20&#45;27</title>
<path fill="#ece8f6" stroke="#aeb6be" d="M36,-4100.25C36,-4100.25 128.8,-4100.25 128.8,-4100.25 134.8,-4100.25 140.8,-4106.25 140.8,-4112.25 140.8,-4112.25 140.8,-5375.25 140.8,-5375.25 140.8,-5381.25 134.8,-5387.25 128.8,-5387.25 128.8,-5387.25 36,-5387.25 36,-5387.25 30,-5387.25 24,-5381.25 24,-5375.25 24,-5375.25 24,-4112.25 24,-4112.25 24,-4106.25 30,-4100.25 36,-4100.25"/>
<text xml:space="preserve" text-anchor="middle" x="62.75" y="-5371.85" font-family="Sans-Serif" font-size="12.00" fill="#2d3436">Ports 20&#45;27</text>
</g>
<g id="clust7" class="cluster">
<title>cluster_Ports 28&#45;35</title>
<path fill="#ece8f6" stroke="#aeb6be" d="M36,-5395.25C36,-5395.25 128.8,-5395.25 128.8,-5395.25 134.8,-5395.25 140.8,-5401.25 140.8,-5407.25 140.8,-5407.25 140.8,-6669.25 140.8,-6669.25 140.8,-6675.25 134.8,-6681.25 128.8,-6681.25 128.8,-6681.25 36,-6681.25 36,-6681.25 30,-6681.25 24,-6675.25 24,-6669.25 24,-6669.25 24,-5407.25 24,-5407.25 24,-5401.25 30,-5395.25 36,-5395.25"/>
<text xml:space="preserve" text-anchor="middle" x="62.75" y="-6665.85" font-family="Sans-Serif" font-size="12.00" fill="#2d3436">Ports 28&#45;35</text>
</g>
<g id="clust8" class="cluster">
<title>cluster_Ports 36&#45;43</title>
<path fill="#ece8f6" stroke="#aeb6be" d="M36,-6689.25C36,-6689.25 128.8,-6689.25 128.8,-6689.25 134.8,-6689.25 140.8,-6695.25 140.8,-6701.25 140.8,-6701.25 140.8,-7936.25 140.8,-7936.25 140.8,-7942.25 134.8,-7948.25 128.8,-7948.25 128.8,-7948.25 36,-7948.25 36,-7948.25 30,-7948.25 24,-7942.25 24,-7936.25 24,-7936.25 24,-6701.25 24,-6701.25 24,-6695.25 30,-6689.25 36,-6689.25"/>
<text xml:space="preserve" text-anchor="middle" x="62.75" y="-7932.85" font-family="Sans-Serif" font-size="12.00" fill="#2d3436">Ports 36&#45;43</text>
</g>
<g id="clust9" class="cluster">
<title>cluster_Ports 44&#45;47</title>
<path fill="#ece8f6" stroke="#aeb6be" d="M36,-7956.25C36,-7956.25 128.8,-7956.25 128.8,-7956.25 134.8,-7956.25 140.8,-7962.25 140.8,-7968.25 140.8,-7968.25 140.8,-8599.25 140.8,-8599.25 140.8,-8605.25 134.8,-8611.25 128.8,-8611.25 128.8,-8611.25 36,-8611.25 36,-8611.25 30,-8611.25 24,-8605.25 24,-8599.25 24,-8599.25 24,-7968.25 24,-7968.25 24,-7962.25 30,-7956.25 36,-7956.25"/>
<text xml:space="preserve" text-anchor="middle" x="62.75" y="-8595.85" font-family="Sans-Serif" font-size="12.00" fill="#2d3436">Ports 44&#45;47</text>
</g>
<g id="clust10" class="cluster">
<title>cluster_OTHER Interfaces</title>
<path fill="#ebf3e7" stroke="#aeb6be" d="M28,-8648.25C28,-8648.25 136.8,-8648.25 136.8,-8648.25 142.8,-8648.25 148.8,-8654.25 148.8,-8660.25 148.8,-8660.25 148.8,-10112.25 148.8,-10112.25 148.8,-10118.25 142.8,-10124.25 136.8,-10124.25 136.8,-10124.25 28,-10124.25 28,-10124.25 22,-10124.25 16,-10118.25 16,-10112.25 16,-10112.25 16,-8660.25 16,-8660.25 16,-8654.25 22,-8648.25 28,-8648.25"/>
<text xml:space="preserve" text-anchor="middle" x="72.75" y="-10108.85" font-family="Sans-Serif" font-size="12.00" fill="#2d3436">OTHER Interfaces</text>
</g>
<g id="clust11" class="cluster">
<title>cluster_Ports 0&#45;0</title>
<path fill="#ece8f6" stroke="#aeb6be" d="M36,-8656.25C36,-8656.25 128.8,-8656.25 128.8,-8656.25 134.8,-8656.25 140.8,-8662.25 140.8,-8668.25 140.8,-8668.25 140.8,-10083.25 140.8,-10083.25 140.8,-10089.25 134.8,-10095.25 128.8,-10095.25 128.8,-10095.25 36,-10095.25 36,-10095.25 30,-10095.25 24,-10089.25 24,-10083.25 24,-10083.25 24,-8668.25 24,-8668.25 24,-8662.25 30,-8656.25 36,-8656.25"/>
<text xml:space="preserve" text-anchor="middle" x="56" y="-10079.85" font-family="Sans-Serif" font-size="12.00" fill="#2d3436">Ports 0&#45;0</text>
</g>
<g id="clust12" class="cluster">
<title>cluster_XE Interfaces</title>
<path fill="#ebf3e7" stroke="#aeb6be" d="M28,-10132.25C28,-10132.25 136.8,-10132.25 136.8,-10132.25 142.8,-10132.25 148.8,-10138.25 148.8,-10144.25 148.8,-10144.25 148.8,-10783.25 148.8,-10783.25 148.8,-10789.25 142.8,-10795.25 136.8,-10795.25 136.8,-10795.25 28,-10795.25 28,-10795.25 22,-10795.25 16,-10789.25 16,-10783.25 16,-10783.25 16,-10144.25 16,-10144.25 16,-10138.25 22,-10132.25 28,-10132.25"/>
<text xml:space="preserve" text-anchor="middle" x="59.62" y="-10779.85" font-family="Sans-Serif" font-size="12.00" fill="#2d3436">XE Interfaces</text>
</g>
<g id="clust13" class="cluster">
<title>cluster_Ports 0&#45;3</title>
<path fill="#ece8f6" stroke="#aeb6be" d="M36,-10140.25C36,-10140.25 128.8,-10140.25 128.8,-10140.25 134.8,-10140.25 140.8,-10146.25 140.8,-10152.25 140.8,-10152.25 140.8,-10754.25 140.8,-10754.25 140.8,-10760.25 134.8,-10766.25 128.8,-10766.25 128.8,-10766.25 36,-10766.25 36,-10766.25 30,-10766.25 24,-10760.25 24,-10754.25 24,-10754.25 24,-10152.25 24,-10152.25 24,-10146.25 30,-10140.25 36,-10140.25"/>
<text xml:space="preserve" text-anchor="middle" x="56" y="-10750.85" font-family="Sans-Serif" font-size="12.00" fill="#2d3436">Ports 0&#45;3</text>
</g>
<!-- 5f00e3d806f14d79866e943a601405ee -->
<g id="node1" class="node">
<title>5f00e3d806f14d79866e943a601405ee</title>
<image xlink:href="/Users/snewsted/projects/juniper-config-melter/.venv/lib/python3.12/site-packages/resources/generic/network/switch.png" width="100.8px" height="100.8px" preserveAspectRatio="xMinYMin meet" x="32" y="-184.65"/>
<text xml:space="preserve" text-anchor="middle" x="82.4" y="-66.1" font-family="Sans-Serif" font-size="13.00" fill="#2d3436">ge&#45;0/0/0</text>
<text xml:space="preserve" text-anchor="middle" x="82.4" y="-52.6" font-family="Sans-Serif" font-size="13.00" fill="#2d3436">uplink to edge router</text>
</g>
<!-- ab29589748204f0293d049224e9a7fdd -->
<g id="node2" class="node">
<title>ab29589748204f0293d049224e9a7fdd</title>
<image xlink:href="/Users/snewsted/projects/juniper-config-melter/.venv/lib/python3.12/site-packages/resources/generic/network/switch.png" width="100.8px" height="100.8px" preserveAspectRatio="xMinYMin meet" x="32" y="-349.65"/>
<text xml:space="preserve" text-anchor="middle" x="82.4" y="-232" font-family="Sans-Serif" font-size="13.00" fill="#2d3436">ge&#45;0/1/0</text>
</g>
<!-- 5a51796d18244d8a92b85fbe7dc4d9be -->
<g id="node3" class="node">
<title>5a51796d18244d8a92b85fbe7dc4d9be</title>
<image xlink:href="/Users/snewsted/projects/juniper-config-melter/.venv/lib/python3.12/site-packages/resources/generic/network/switch.png" width="100.8px" height="100.8px" preserveAspectRatio="xMinYMin meet" x="32" y="-500.65"/>
<text xml:space="preserve" text-anchor="middle" x="82.4" y="-383" font-family="Sans-Serif" font-size="13.00" fill="#2d3436">ge&#45;0/0/1</text>
</g>
<!-- 73ebb8c8a3ec41d59a7b56769089fc0d -->
<g id="node4" class="node">
<title>73ebb8c8a3ec41d59a7b56769089fc0d</title>
<image xlink:href="/Users/snewsted/projects/juniper-config-melter/.venv/lib/python3.12/site-packages/resources/generic/network/switch.png" width="100.8px" height="100.8px" preserveAspectRatio="xMinYMin meet" x="32" y="-651.65"/>
<text xml:space="preserve" text-anchor="middle" x="82.4" y="-534" font-family="Sans-Serif" font-size="13.00" fill="#2d3436">ge&#45;0/1/1</text>
</g>
<!-- 52a46883c5604c539a115c280227640a -->
<g id="node5" class="node">
<title>52a46883c5604c539a115c280227640a</title>
<image xlink:href="/Users/snewsted/projects/juniper-config-melter/.venv/lib/python3.12/site-packages/resources/generic/network/switch.png" width="100.8px" height="100.8px" preserveAspectRatio="xMinYMin meet" x="32" y="-816.65"/>
<text xml:space="preserve" text-anchor="middle" x="82.4" y="-698.1" font-family="Sans-Serif" font-size="13.00" fill="#2d3436">ge&#45;0/0/2</text>
<text xml:space="preserve" text-anchor="middle" x="82.4" y="-684.6" font-family="Sans-Serif" font-size="13.00" fill="#2d3436">r610 &#45; port 1</text>
</g>
<!-- a0b4424a036a4579913ace54295e0970 -->
<g id="node6" class="node">
<title>a0b4424a036a4579913ace54295e0970</title>
<image xlink:href="/Users/snewsted/projects/juniper-config-melter/.venv/lib/python3.12/site-packages/resources/generic/network/switch.png" width="100.8px" height="100.8px" preserveAspectRatio="xMinYMin meet" x="32" y="-981.65"/>
<text xml:space="preserve" text-anchor="middle" x="82.4" y="-864" font-family="Sans-Serif" font-size="13.00" fill="#2d3436">ge&#45;0/1/2</text>
</g>
<!-- 785e3bfd1c6047eca34551666965be38 -->
<g id="node7" class="node">
<title>785e3bfd1c6047eca34551666965be38</title>
<image xlink:href="/Users/snewsted/projects/juniper-config-melter/.venv/lib/python3.12/site-packages/resources/generic/network/switch.png" width="100.8px" height="100.8px" preserveAspectRatio="xMinYMin meet" x="32" y="-1146.65"/>
<text xml:space="preserve" text-anchor="middle" x="82.4" y="-1028.1" font-family="Sans-Serif" font-size="13.00" fill="#2d3436">ge&#45;0/0/3</text>
<text xml:space="preserve" text-anchor="middle" x="82.4" y="-1014.6" font-family="Sans-Serif" font-size="13.00" fill="#2d3436">r610 &#45; port 2</text>
</g>
<!-- 902e36a96f6549a1803a2e0e3525c429 -->
<g id="node8" class="node">
<title>902e36a96f6549a1803a2e0e3525c429</title>
<image xlink:href="/Users/snewsted/projects/juniper-config-melter/.venv/lib/python3.12/site-packages/resources/generic/network/switch.png" width="100.8px" height="100.8px" preserveAspectRatio="xMinYMin meet" x="32" y="-1311.65"/>
<text xml:space="preserve" text-anchor="middle" x="82.4" y="-1194" font-family="Sans-Serif" font-size="13.00" fill="#2d3436">ge&#45;0/1/3</text>
</g>
<!-- fd9467c3fae9413482bc1d02638b76a3 -->
<g id="node9" class="node">
<title>fd9467c3fae9413482bc1d02638b76a3</title>
<image xlink:href="/Users/snewsted/projects/juniper-config-melter/.venv/lib/python3.12/site-packages/resources/generic/network/switch.png" width="100.8px" height="100.8px" preserveAspectRatio="xMinYMin meet" x="32" y="-1507.65"/>
<text xml:space="preserve" text-anchor="middle" x="82.4" y="-1389.1" font-family="Sans-Serif" font-size="13.00" fill="#2d3436">ge&#45;0/0/4</text>
<text xml:space="preserve" text-anchor="middle" x="82.4" y="-1375.6" font-family="Sans-Serif" font-size="13.00" fill="#2d3436">r610 &#45; port 3</text>
</g>
<!-- d8ae436be46f4394958e9ed7dd6d672e -->
<g id="node10" class="node">
<title>d8ae436be46f4394958e9ed7dd6d672e</title>
<image xlink:href="/Users/snewsted/projects/juniper-config-melter/.venv/lib/python3.12/site-packages/resources/generic/network/switch.png" width="100.8px" height="100.8px" preserveAspectRatio="xMinYMin meet" x="32" y="-1687.65"/>
<text xml:space="preserve" text-anchor="middle" x="82.4" y="-1569.1" font-family="Sans-Serif" font-size="13.00" fill="#2d3436">ge&#45;0/0/5</text>
<text xml:space="preserve" text-anchor="middle" x="82.4" y="-1555.6" font-family="Sans-Serif" font-size="13.00" fill="#2d3436">r610 &#45; port 4</text>
</g>
<!-- f4115c3448a844bb80a769878bc67315 -->
<g id="node11" class="node">
<title>f4115c3448a844bb80a769878bc67315</title>
<image xlink:href="/Users/snewsted/projects/juniper-config-melter/.venv/lib/python3.12/site-packages/resources/generic/network/switch.png" width="100.8px" height="100.8px" preserveAspectRatio="xMinYMin meet" x="32" y="-1867.65"/>
<text xml:space="preserve" text-anchor="middle" x="82.4" y="-1749.1" font-family="Sans-Serif" font-size="13.00" fill="#2d3436">ge&#45;0/0/6</text>
<text xml:space="preserve" text-anchor="middle" x="82.4" y="-1735.6" font-family="Sans-Serif" font-size="13.00" fill="#2d3436">orange &#45; port 1</text>
</g>
<!-- fec3b5aa79b9479fb2635b9cdc3d1f0c -->
<g id="node12" class="node">
<title>fec3b5aa79b9479fb2635b9cdc3d1f0c</title>
<image xlink:href="/Users/snewsted/projects/juniper-config-melter/.venv/lib/python3.12/site-packages/resources/generic/network/switch.png" width="100.8px" height="100.8px" preserveAspectRatio="xMinYMin meet" x="32" y="-2047.65"/>
<text xml:space="preserve" text-anchor="middle" x="82.4" y="-1929.1" font-family="Sans-Serif" font-size="13.00" fill="#2d3436">ge&#45;0/0/7</text>
<text xml:space="preserve" text-anchor="middle" x="82.4" y="-1915.6" font-family="Sans-Serif" font-size="13.00" fill="#2d3436">orange &#45; port 2</text>
</g>
<!-- 941593724acf40548f2ffc29277ba19c -->
<g id="node13" class="node">
<title>941593724acf40548f2ffc29277ba19c</title>
<image xlink:href="/Users/snewsted/projects/juniper-config-melter/.venv/lib/python3.12/site-packages/resources/generic/network/switch.png" width="100.8px" height="100.8px" preserveAspectRatio="xMinYMin meet" x="32" y="-2212.65"/>
<text xml:space="preserve" text-anchor="middle" x="82.4" y="-2095" font-family="Sans-Serif" font-size="13.00" fill="#2d3436">ge&#45;0/0/8</text>
</g>
<!-- c9148e4170da42908099bd47ef37d77e -->
<g id="node14" class="node">
<title>c9148e4170da42908099bd47ef37d77e</title>
<image xlink:href="/Users/snewsted/projects/juniper-config-melter/.venv/lib/python3.12/site-packages/resources/generic/network/switch.png" width="100.8px" height="100.8px" preserveAspectRatio="xMinYMin meet" x="32" y="-2377.65"/>
<text xml:space="preserve" text-anchor="middle" x="82.4" y="-2259.1" font-family="Sans-Serif" font-size="13.00" fill="#2d3436">ge&#45;0/0/9</text>
<text xml:space="preserve" text-anchor="middle" x="82.4" y="-2245.6" font-family="Sans-Serif" font-size="13.00" fill="#2d3436">Smartthings hub</text>
</g>
<!-- 546ebe126ace4280a2bb7427039f225c -->
<g id="node15" class="node">
<title>546ebe126ace4280a2bb7427039f225c</title>
<image xlink:href="/Users/snewsted/projects/juniper-config-melter/.venv/lib/python3.12/site-packages/resources/generic/network/switch.png" width="100.8px" height="100.8px" preserveAspectRatio="xMinYMin meet" x="32" y="-2557.65"/>
<text xml:space="preserve" text-anchor="middle" x="82.4" y="-2439.1" font-family="Sans-Serif" font-size="13.00" fill="#2d3436">ge&#45;0/0/10</text>
<text xml:space="preserve" text-anchor="middle" x="82.4" y="-2425.6" font-family="Sans-Serif" font-size="13.00" fill="#2d3436">Arlo hub</text>
</g>
<!-- 6c89ee046cf04795bd70b4be36dea96e -->
<g id="node16" class="node">
<title>6c89ee046cf04795bd70b4be36dea96e</title>
<image xlink:href="/Users/snewsted/projects/juniper-config-melter/.venv/lib/python3.12/site-packages/resources/generic/network/switch.png" width="100.8px" height="100.8px" preserveAspectRatio="xMinYMin meet" x="32" y="-2722.65"/>
<text xml:space="preserve" text-anchor="middle" x="82.4" y="-2605" font-family="Sans-Serif" font-size="13.00" fill="#2d3436">ge&#45;0/0/11</text>
</g>
<!-- 832e672018824b0f8a7994181e4bcb32 -->
<g id="node17" class="node">
<title>832e672018824b0f8a7994181e4bcb32</title>
<image xlink:href="/Users/snewsted/projects/juniper-config-melter/.venv/lib/python3.12/site-packages/resources/generic/network/switch.png" width="100.8px" height="100.8px" preserveAspectRatio="xMinYMin meet" x="32" y="-2918.65"/>
<text xml:space="preserve" text-anchor="middle" x="82.4" y="-2800.1" font-family="Sans-Serif" font-size="13.00" fill="#2d3436">ge&#45;0/0/12</text>
<text xml:space="preserve" text-anchor="middle" x="82.4" y="-2786.6" font-family="Sans-Serif" font-size="13.00" fill="#2d3436">Ubiquiti WAP</text>
</g>
<!-- 1ff3243f9ca54f9eae172453f1cb2869 -->
<g id="node18" class="node">
<title>1ff3243f9ca54f9eae172453f1cb2869</title>
<image xlink:href="/Users/snewsted/projects/juniper-config-melter/.venv/lib/python3.12/site-packages/resources/generic/network/switch.png" width="100.8px" height="100.8px" preserveAspectRatio="xMinYMin meet" x="32" y="-3083.65"/>
<text xml:space="preserve" text-anchor="middle" x="82.4" y="-2966" font-family="Sans-Serif" font-size="13.00" fill="#2d3436">ge&#45;0/0/13</text>
</g>
<!-- f396f8d6ff85439e81992042e8cd4b4e -->
<g id="node19" class="node">
<title>f396f8d6ff85439e81992042e8cd4b4e</title>
<image xlink:href="/Users/snewsted/projects/juniper-config-melter/.venv/lib/python3.12/site-packages/resources/generic/network/switch.png" width="100.8px" height="100.8px" preserveAspectRatio="xMinYMin meet" x="32" y="-3248.65"/>
<text xml:space="preserve" text-anchor="middle" x="82.4" y="-3130.1" font-family="Sans-Serif" font-size="13.00" fill="#2d3436">ge&#45;0/0/14</text>
<text xml:space="preserve" text-anchor="middle" x="82.4" y="-3116.6" font-family="Sans-Serif" font-size="13.00" fill="#2d3436">DSL Modem</text>
</g>
<!-- e1ca00de69544b85a18fd66c60a67db3 -->
<g id="node20" class="node">
<title>e1ca00de69544b85a18fd66c60a67db3</title>
<image xlink:href="/Users/snewsted/projects/juniper-config-melter/.venv/lib/python3.12/site-packages/resources/generic/network/switch.png" width="100.8px" height="100.8px" preserveAspectRatio="xMinYMin meet" x="32" y="-3413.65"/>
<text xml:space="preserve" text-anchor="middle" x="82.4" y="-3296" font-family="Sans-Serif" font-size="13.00" fill="#2d3436">ge&#45;0/0/15</text>
</g>
<!-- 3042619840fa40f3ae6b0e9816e29d4f -->
<g id="node21" class="node">
<title>3042619840fa40f3ae6b0e9816e29d4f</title>
<image xlink:href="/Users/snewsted/projects/juniper-config-melter/.venv/lib/python3.12/site-packages/resources/generic/network/switch.png" width="100.8px" height="100.8px" preserveAspectRatio="xMinYMin meet" x="32" y="-3578.65"/>
<text xml:space="preserve" text-anchor="middle" x="82.4" y="-3460.1" font-family="Sans-Serif" font-size="13.00" fill="#2d3436">ge&#45;0/0/16</text>
<text xml:space="preserve" text-anchor="middle" x="82.4" y="-3446.6" font-family="Sans-Serif" font-size="13.00" fill="#2d3436">APU igb2</text>
</g>
<!-- 4ac159b7391343f3b9a64b070c9fe631 -->
<g id="node22" class="node">
<title>4ac159b7391343f3b9a64b070c9fe631</title>
<image xlink:href="/Users/snewsted/projects/juniper-config-melter/.venv/lib/python3.12/site-packages/resources/generic/network/switch.png" width="100.8px" height="100.8px" preserveAspectRatio="xMinYMin meet" x="32" y="-3743.65"/>
<text xml:space="preserve" text-anchor="middle" x="82.4" y="-3626" font-family="Sans-Serif" font-size="13.00" fill="#2d3436">ge&#45;0/0/17</text>
</g>
<!-- eb3ab5cba10242e599e3fc4ba13b9568 -->
<g id="node23" class="node">
<title>eb3ab5cba10242e599e3fc4ba13b9568</title>
<image xlink:href="/Users/snewsted/projects/juniper-config-melter/.venv/lib/python3.12/site-packages/resources/generic/network/switch.png" width="100.8px" height="100.8px" preserveAspectRatio="xMinYMin meet" x="32" y="-3894.65"/>
<text xml:space="preserve" text-anchor="middle" x="82.4" y="-3777" font-family="Sans-Serif" font-size="13.00" fill="#2d3436">ge&#45;0/0/18</text>
</g>
<!-- 9ba7814d2ae2431c9939182241ee642f -->
<g id="node24" class="node">
<title>9ba7814d2ae2431c9939182241ee642f</title>
<image xlink:href="/Users/snewsted/projects/juniper-config-melter/.venv/lib/python3.12/site-packages/resources/generic/network/switch.png" width="100.8px" height="100.8px" preserveAspectRatio="xMinYMin meet" x="32" y="-4045.65"/>
<text xml:space="preserve" text-anchor="middle" x="82.4" y="-3928" font-family="Sans-Serif" font-size="13.00" fill="#2d3436">ge&#45;0/0/19</text>
</g>
<!-- 84657ea04a4e4ac1b14a86b74ac235da -->
<g id="node25" class="node">
<title>84657ea04a4e4ac1b14a86b74ac235da</title>
<image xlink:href="/Users/snewsted/projects/juniper-config-melter/.venv/lib/python3.12/site-packages/resources/generic/network/switch.png" width="100.8px" height="100.8px" preserveAspectRatio="xMinYMin meet" x="32" y="-4226.65"/>
<text xml:space="preserve" text-anchor="middle" x="82.4" y="-4109" font-family="Sans-Serif" font-size="13.00" fill="#2d3436">ge&#45;0/0/20</text>
</g>
<!-- 74986213b83641c28f1d7d84fb685d6f -->
<g id="node26" class="node">
<title>74986213b83641c28f1d7d84fb685d6f</title>
<image xlink:href="/Users/snewsted/projects/juniper-config-melter/.venv/lib/python3.12/site-packages/resources/generic/network/switch.png" width="100.8px" height="100.8px" preserveAspectRatio="xMinYMin meet" x="32" y="-4377.65"/>
<text xml:space="preserve" text-anchor="middle" x="82.4" y="-4260" font-family="Sans-Serif" font-size="13.00" fill="#2d3436">ge&#45;0/0/21</text>
</g>
<!-- fa44211f783b420d81821cc251a0b029 -->
<g id="node27" class="node">
<title>fa44211f783b420d81821cc251a0b029</title>
<image xlink:href="/Users/snewsted/projects/juniper-config-melter/.venv/lib/python3.12/site-packages/resources/generic/network/switch.png" width="100.8px" height="100.8px" preserveAspectRatio="xMinYMin meet" x="32" y="-4528.65"/>
<text xml:space="preserve" text-anchor="middle" x="82.4" y="-4411" font-family="Sans-Serif" font-size="13.00" fill="#2d3436">ge&#45;0/0/22</text>
</g>
<!-- 9661336fba3a4a5a9bdc7e3ddce188dc -->
<g id="node28" class="node">
<title>9661336fba3a4a5a9bdc7e3ddce188dc</title>
<image xlink:href="/Users/snewsted/projects/juniper-config-melter/.venv/lib/python3.12/site-packages/resources/generic/network/switch.png" width="100.8px" height="100.8px" preserveAspectRatio="xMinYMin meet" x="32" y="-4679.65"/>
<text xml:space="preserve" text-anchor="middle" x="82.4" y="-4562" font-family="Sans-Serif" font-size="13.00" fill="#2d3436">ge&#45;0/0/23</text>
</g>
<!-- ee26ca56432048d388fc93d828709cc5 -->
<g id="node29" class="node">
<title>ee26ca56432048d388fc93d828709cc5</title>
<image xlink:href="/Users/snewsted/projects/juniper-config-melter/.venv/lib/python3.12/site-packages/resources/generic/network/switch.png" width="100.8px" height="100.8px" preserveAspectRatio="xMinYMin meet" x="32" y="-4844.65"/>
<text xml:space="preserve" text-anchor="middle" x="82.4" y="-4726.1" font-family="Sans-Serif" font-size="13.00" fill="#2d3436">ge&#45;0/0/24</text>
<text xml:space="preserve" text-anchor="middle" x="82.4" y="-4712.6" font-family="Sans-Serif" font-size="13.00" fill="#2d3436">r610 &#45; oob &#45; idrac</text>
</g>
<!-- 651580f81ff44a19a0bfb5745fd9fffa -->
<g id="node30" class="node">
<title>651580f81ff44a19a0bfb5745fd9fffa</title>
<image xlink:href="/Users/snewsted/projects/juniper-config-melter/.venv/lib/python3.12/site-packages/resources/generic/network/switch.png" width="100.8px" height="100.8px" preserveAspectRatio="xMinYMin meet" x="32" y="-5024.65"/>
<text xml:space="preserve" text-anchor="middle" x="82.4" y="-4906.1" font-family="Sans-Serif" font-size="13.00" fill="#2d3436">ge&#45;0/0/25</text>
<text xml:space="preserve" text-anchor="middle" x="82.4" y="-4892.6" font-family="Sans-Serif" font-size="13.00" fill="#2d3436">orange &#45; oob &#45; ipmi</text>
</g>
<!-- fbd472fd1b404d6ca90b49242804b72e -->
<g id="node31" class="node">
<title>fbd472fd1b404d6ca90b49242804b72e</title>
<image xlink:href="/Users/snewsted/projects/juniper-config-melter/.venv/lib/python3.12/site-packages/resources/generic/network/switch.png" width="100.8px" height="100.8px" preserveAspectRatio="xMinYMin meet" x="32" y="-5189.65"/>
<text xml:space="preserve" text-anchor="middle" x="82.4" y="-5072" font-family="Sans-Serif" font-size="13.00" fill="#2d3436">ge&#45;0/0/26</text>
</g>
<!-- c4e68a9c0fb04148ac1ed6dcb5ee106b -->
<g id="node32" class="node">
<title>c4e68a9c0fb04148ac1ed6dcb5ee106b</title>
<image xlink:href="/Users/snewsted/projects/juniper-config-melter/.venv/lib/python3.12/site-packages/resources/generic/network/switch.png" width="100.8px" height="100.8px" preserveAspectRatio="xMinYMin meet" x="32" y="-5340.65"/>
<text xml:space="preserve" text-anchor="middle" x="82.4" y="-5223" font-family="Sans-Serif" font-size="13.00" fill="#2d3436">ge&#45;0/0/27</text>
</g>
<!-- 131d367b83d545b2bc946a39736dfb36 -->
<g id="node33" class="node">
<title>131d367b83d545b2bc946a39736dfb36</title>
<image xlink:href="/Users/snewsted/projects/juniper-config-melter/.venv/lib/python3.12/site-packages/resources/generic/network/switch.png" width="100.8px" height="100.8px" preserveAspectRatio="xMinYMin meet" x="32" y="-5521.65"/>
<text xml:space="preserve" text-anchor="middle" x="82.4" y="-5404" font-family="Sans-Serif" font-size="13.00" fill="#2d3436">ge&#45;0/0/28</text>
</g>
<!-- 8ce7a39cbadc49d3b9935a73c037d898 -->
<g id="node34" class="node">
<title>8ce7a39cbadc49d3b9935a73c037d898</title>
<image xlink:href="/Users/snewsted/projects/juniper-config-melter/.venv/lib/python3.12/site-packages/resources/generic/network/switch.png" width="100.8px" height="100.8px" preserveAspectRatio="xMinYMin meet" x="32" y="-5686.65"/>
<text xml:space="preserve" text-anchor="middle" x="82.4" y="-5568.1" font-family="Sans-Serif" font-size="13.00" fill="#2d3436">ge&#45;0/0/29</text>
<text xml:space="preserve" text-anchor="middle" x="82.4" y="-5554.6" font-family="Sans-Serif" font-size="13.00" fill="#2d3436">grandstream ata</text>
</g>
<!-- cf7e648c25bb4c03984ea54f29855999 -->
<g id="node35" class="node">
<title>cf7e648c25bb4c03984ea54f29855999</title>
<image xlink:href="/Users/snewsted/projects/juniper-config-melter/.venv/lib/python3.12/site-packages/resources/generic/network/switch.png" width="100.8px" height="100.8px" preserveAspectRatio="xMinYMin meet" x="32" y="-5851.65"/>
<text xml:space="preserve" text-anchor="middle" x="82.4" y="-5734" font-family="Sans-Serif" font-size="13.00" fill="#2d3436">ge&#45;0/0/30</text>
</g>
<!-- ef330b6289e94c118700ac97be684ddd -->
<g id="node36" class="node">
<title>ef330b6289e94c118700ac97be684ddd</title>
<image xlink:href="/Users/snewsted/projects/juniper-config-melter/.venv/lib/python3.12/site-packages/resources/generic/network/switch.png" width="100.8px" height="100.8px" preserveAspectRatio="xMinYMin meet" x="32" y="-6016.65"/>
<text xml:space="preserve" text-anchor="middle" x="82.4" y="-5898.1" font-family="Sans-Serif" font-size="13.00" fill="#2d3436">ge&#45;0/0/31</text>
<text xml:space="preserve" text-anchor="middle" x="82.4" y="-5884.6" font-family="Sans-Serif" font-size="13.00" fill="#2d3436">port 31 for the newlab200 vlan</text>
</g>
<!-- c11819d1aefe401a96f273adc1a07253 -->
<g id="node37" class="node">
<title>c11819d1aefe401a96f273adc1a07253</title>
<image xlink:href="/Users/snewsted/projects/juniper-config-melter/.venv/lib/python3.12/site-packages/resources/generic/network/switch.png" width="100.8px" height="100.8px" preserveAspectRatio="xMinYMin meet" x="32" y="-6181.65"/>
<text xml:space="preserve" text-anchor="middle" x="82.4" y="-6064" font-family="Sans-Serif" font-size="13.00" fill="#2d3436">ge&#45;0/0/32</text>
</g>
<!-- 09c2612767264ae0b014a20ae5d0a160 -->
<g id="node38" class="node">
<title>09c2612767264ae0b014a20ae5d0a160</title>
<image xlink:href="/Users/snewsted/projects/juniper-config-melter/.venv/lib/python3.12/site-packages/resources/generic/network/switch.png" width="100.8px" height="100.8px" preserveAspectRatio="xMinYMin meet" x="32" y="-6332.65"/>
<text xml:space="preserve" text-anchor="middle" x="82.4" y="-6215" font-family="Sans-Serif" font-size="13.00" fill="#2d3436">ge&#45;0/0/33</text>
</g>
<!-- 13f5007c022649f094d9e7ec7487f189 -->
<g id="node39" class="node">
<title>13f5007c022649f094d9e7ec7487f189</title>
<image xlink:href="/Users/snewsted/projects/juniper-config-melter/.venv/lib/python3.12/site-packages/resources/generic/network/switch.png" width="100.8px" height="100.8px" preserveAspectRatio="xMinYMin meet" x="32" y="-6483.65"/>
<text xml:space="preserve" text-anchor="middle" x="82.4" y="-6366" font-family="Sans-Serif" font-size="13.00" fill="#2d3436">ge&#45;0/0/34</text>
</g>
<!-- 57c0a32c321f4a19acf3f9f7c368000d -->
<g id="node40" class="node">
<title>57c0a32c321f4a19acf3f9f7c368000d</title>
<image xlink:href="/Users/snewsted/projects/juniper-config-melter/.venv/lib/python3.12/site-packages/resources/generic/network/switch.png" width="100.8px" height="100.8px" preserveAspectRatio="xMinYMin meet" x="32" y="-6634.65"/>
<text xml:space="preserve" text-anchor="middle" x="82.4" y="-6517" font-family="Sans-Serif" font-size="13.00" fill="#2d3436">ge&#45;0/0/35</text>
</g>
<!-- 5f99995fe9b54708a3ddb8ac579700b0 -->
<g id="node41" class="node">
<title>5f99995fe9b54708a3ddb8ac579700b0</title>
<image xlink:href="/Users/snewsted/projects/juniper-config-melter/.venv/lib/python3.12/site-packages/resources/generic/network/switch.png" width="100.8px" height="100.8px" preserveAspectRatio="xMinYMin meet" x="32" y="-6830.65"/>
<text xml:space="preserve" text-anchor="middle" x="82.4" y="-6712.1" font-family="Sans-Serif" font-size="13.00" fill="#2d3436">ge&#45;0/0/36</text>
<text xml:space="preserve" text-anchor="middle" x="82.4" y="-6698.6" font-family="Sans-Serif" font-size="13.00" fill="#2d3436">APU igb2</text>
</g>
<!-- ae9602167b1b4858a551ba9240494fd4 -->
<g id="node42" class="node">
<title>ae9602167b1b4858a551ba9240494fd4</title>
<image xlink:href="/Users/snewsted/projects/juniper-config-melter/.venv/lib/python3.12/site-packages/resources/generic/network/switch.png" width="100.8px" height="100.8px" preserveAspectRatio="xMinYMin meet" x="32" y="-6995.65"/>
<text xml:space="preserve" text-anchor="middle" x="82.4" y="-6878" font-family="Sans-Serif" font-size="13.00" fill="#2d3436">ge&#45;0/0/37</text>
</g>
<!-- 14db946b59b140e59c39335f3c0080c2 -->
<g id="node43" class="node">
<title>14db946b59b140e59c39335f3c0080c2</title>
<image xlink:href="/Users/snewsted/projects/juniper-config-melter/.venv/lib/python3.12/site-packages/resources/generic/network/switch.png" width="100.8px" height="100.8px" preserveAspectRatio="xMinYMin meet" x="32" y="-7146.65"/>
<text xml:space="preserve" text-anchor="middle" x="82.4" y="-7029" font-family="Sans-Serif" font-size="13.00" fill="#2d3436">ge&#45;0/0/38</text>
</g>
<!-- 80336b9919e04ca2b9ebe099b8312220 -->
<g id="node44" class="node">
<title>80336b9919e04ca2b9ebe099b8312220</title>
<image xlink:href="/Users/snewsted/projects/juniper-config-melter/.venv/lib/python3.12/site-packages/resources/generic/network/switch.png" width="100.8px" height="100.8px" preserveAspectRatio="xMinYMin meet" x="32" y="-7297.65"/>
<text xml:space="preserve" text-anchor="middle" x="82.4" y="-7180" font-family="Sans-Serif" font-size="13.00" fill="#2d3436">ge&#45;0/0/39</text>
</g>
<!-- eee91c7802f7463ca7757addffeee47c -->
<g id="node45" class="node">
<title>eee91c7802f7463ca7757addffeee47c</title>
<image xlink:href="/Users/snewsted/projects/juniper-config-melter/.venv/lib/python3.12/site-packages/resources/generic/network/switch.png" width="100.8px" height="100.8px" preserveAspectRatio="xMinYMin meet" x="32" y="-7448.65"/>
<text xml:space="preserve" text-anchor="middle" x="82.4" y="-7331" font-family="Sans-Serif" font-size="13.00" fill="#2d3436">ge&#45;0/0/40</text>
</g>
<!-- bebb530207174840aeaf7fa66ea7f13e -->
<g id="node46" class="node">
<title>bebb530207174840aeaf7fa66ea7f13e</title>
<image xlink:href="/Users/snewsted/projects/juniper-config-melter/.venv/lib/python3.12/site-packages/resources/generic/network/switch.png" width="100.8px" height="100.8px" preserveAspectRatio="xMinYMin meet" x="32" y="-7599.65"/>
<text xml:space="preserve" text-anchor="middle" x="82.4" y="-7482" font-family="Sans-Serif" font-size="13.00" fill="#2d3436">ge&#45;0/0/41</text>
</g>
<!-- 774a117154b845239e521b34eb95d95a -->
<g id="node47" class="node">
<title>774a117154b845239e521b34eb95d95a</title>
<image xlink:href="/Users/snewsted/projects/juniper-config-melter/.venv/lib/python3.12/site-packages/resources/generic/network/switch.png" width="100.8px" height="100.8px" preserveAspectRatio="xMinYMin meet" x="32" y="-7750.65"/>
<text xml:space="preserve" text-anchor="middle" x="82.4" y="-7633" font-family="Sans-Serif" font-size="13.00" fill="#2d3436">ge&#45;0/0/42</text>
</g>
<!-- 2afe9161e03c453a81481bb9ce49fd9a -->
<g id="node48" class="node">
<title>2afe9161e03c453a81481bb9ce49fd9a</title>
<image xlink:href="/Users/snewsted/projects/juniper-config-melter/.venv/lib/python3.12/site-packages/resources/generic/network/switch.png" width="100.8px" height="100.8px" preserveAspectRatio="xMinYMin meet" x="32" y="-7901.65"/>
<text xml:space="preserve" text-anchor="middle" x="82.4" y="-7784" font-family="Sans-Serif" font-size="13.00" fill="#2d3436">ge&#45;0/0/43</text>
</g>
<!-- 61a1e2a4c49c43a1a24a8e0adc258256 -->
<g id="node49" class="node">
<title>61a1e2a4c49c43a1a24a8e0adc258256</title>
<image xlink:href="/Users/snewsted/projects/juniper-config-melter/.venv/lib/python3.12/site-packages/resources/generic/network/switch.png" width="100.8px" height="100.8px" preserveAspectRatio="xMinYMin meet" x="32" y="-8082.65"/>
<text xml:space="preserve" text-anchor="middle" x="82.4" y="-7965" font-family="Sans-Serif" font-size="13.00" fill="#2d3436">ge&#45;0/0/44</text>
</g>
<!-- 51d6fee5d4354049bf85c972dcc4fa65 -->
<g id="node50" class="node">
<title>51d6fee5d4354049bf85c972dcc4fa65</title>
<image xlink:href="/Users/snewsted/projects/juniper-config-melter/.venv/lib/python3.12/site-packages/resources/generic/network/switch.png" width="100.8px" height="100.8px" preserveAspectRatio="xMinYMin meet" x="32" y="-8233.65"/>
<text xml:space="preserve" text-anchor="middle" x="82.4" y="-8116" font-family="Sans-Serif" font-size="13.00" fill="#2d3436">ge&#45;0/0/45</text>
</g>
<!-- c19cf5896f9949d8883a11dda222e493 -->
<g id="node51" class="node">
<title>c19cf5896f9949d8883a11dda222e493</title>
<image xlink:href="/Users/snewsted/projects/juniper-config-melter/.venv/lib/python3.12/site-packages/resources/generic/network/switch.png" width="100.8px" height="100.8px" preserveAspectRatio="xMinYMin meet" x="32" y="-8384.65"/>
<text xml:space="preserve" text-anchor="middle" x="82.4" y="-8267" font-family="Sans-Serif" font-size="13.00" fill="#2d3436">ge&#45;0/0/46</text>
</g>
<!-- ed7199b2df6b4aa78f31e21b62f50c03 -->
<g id="node52" class="node">
<title>ed7199b2df6b4aa78f31e21b62f50c03</title>
<image xlink:href="/Users/snewsted/projects/juniper-config-melter/.venv/lib/python3.12/site-packages/resources/generic/network/switch.png" width="100.8px" height="100.8px" preserveAspectRatio="xMinYMin meet" x="32" y="-8549.65"/>
<text xml:space="preserve" text-anchor="middle" x="82.4" y="-8431.1" font-family="Sans-Serif" font-size="13.00" fill="#2d3436">ge&#45;0/0/47</text>
<text xml:space="preserve" text-anchor="middle" x="82.4" y="-8417.6" font-family="Sans-Serif" font-size="13.00" fill="#2d3436">netgear in office</text>
</g>
<!-- 6558c3d936034ca7a0e9c0e84fc0ba6f -->
<g id="node53" class="node">
<title>6558c3d936034ca7a0e9c0e84fc0ba6f</title>
<image xlink:href="/Users/snewsted/projects/juniper-config-melter/.venv/lib/python3.12/site-packages/resources/generic/network/switch.png" width="100.8px" height="100.8px" preserveAspectRatio="xMinYMin meet" x="32" y="-8782.65"/>
<text xml:space="preserve" text-anchor="middle" x="82.4" y="-8665" font-family="Sans-Serif" font-size="13.00" fill="#2d3436">vlan</text>
</g>
<!-- 129ae6dcc29b4929933aed412aee92f7 -->
<g id="node54" class="node">
<title>129ae6dcc29b4929933aed412aee92f7</title>
<image xlink:href="/Users/snewsted/projects/juniper-config-melter/.venv/lib/python3.12/site-packages/resources/generic/network/switch.png" width="100.8px" height="100.8px" preserveAspectRatio="xMinYMin meet" x="32" y="-8933.65"/>
<text xml:space="preserve" text-anchor="middle" x="82.4" y="-8816" font-family="Sans-Serif" font-size="13.00" fill="#2d3436">vlan</text>
</g>
<!-- cd35af4eb14c4e6e9e37bd34257b51ed -->
<g id="node55" class="node">
<title>cd35af4eb14c4e6e9e37bd34257b51ed</title>
<image xlink:href="/Users/snewsted/projects/juniper-config-melter/.venv/lib/python3.12/site-packages/resources/generic/network/switch.png" width="100.8px" height="100.8px" preserveAspectRatio="xMinYMin meet" x="32" y="-9084.65"/>
<text xml:space="preserve" text-anchor="middle" x="82.4" y="-8967" font-family="Sans-Serif" font-size="13.00" fill="#2d3436">vlan</text>
</g>
<!-- 47f58f91e2df4781aef4c3c67483eb73 -->
<g id="node56" class="node">
<title>47f58f91e2df4781aef4c3c67483eb73</title>
<image xlink:href="/Users/snewsted/projects/juniper-config-melter/.venv/lib/python3.12/site-packages/resources/generic/network/switch.png" width="100.8px" height="100.8px" preserveAspectRatio="xMinYMin meet" x="32" y="-9235.65"/>
<text xml:space="preserve" text-anchor="middle" x="82.4" y="-9118" font-family="Sans-Serif" font-size="13.00" fill="#2d3436">vlan</text>
</g>
<!-- 9e8100f5b5d2409bb8c8eaeb55cd4a3f -->
<g id="node57" class="node">
<title>9e8100f5b5d2409bb8c8eaeb55cd4a3f</title>
<image xlink:href="/Users/snewsted/projects/juniper-config-melter/.venv/lib/python3.12/site-packages/resources/generic/network/switch.png" width="100.8px" height="100.8px" preserveAspectRatio="xMinYMin meet" x="32" y="-9386.65"/>
<text xml:space="preserve" text-anchor="middle" x="82.4" y="-9269" font-family="Sans-Serif" font-size="13.00" fill="#2d3436">vlan</text>
</g>
<!-- cd715e9fda334e5e9dc084c84dab39c2 -->
<g id="node58" class="node">
<title>cd715e9fda334e5e9dc084c84dab39c2</title>
<image xlink:href="/Users/snewsted/projects/juniper-config-melter/.venv/lib/python3.12/site-packages/resources/generic/network/switch.png" width="100.8px" height="100.8px" preserveAspectRatio="xMinYMin meet" x="32" y="-9537.65"/>
<text xml:space="preserve" text-anchor="middle" x="82.4" y="-9420" font-family="Sans-Serif" font-size="13.00" fill="#2d3436">vlan</text>
</g>
<!-- 3070fd604306418cb1ae1aa0f8d9e24b -->
<g id="node59" class="node">
<title>3070fd604306418cb1ae1aa0f8d9e24b</title>
<image xlink:href="/Users/snewsted/projects/juniper-config-melter/.venv/lib/python3.12/site-packages/resources/generic/network/switch.png" width="100.8px" height="100.8px" preserveAspectRatio="xMinYMin meet" x="32" y="-9688.65"/>
<text xml:space="preserve" text-anchor="middle" x="82.4" y="-9571" font-family="Sans-Serif" font-size="13.00" fill="#2d3436">vlan</text>
</g>
<!-- 6980efc72c3343d3a72286163ec973b1 -->
<g id="node60" class="node">
<title>6980efc72c3343d3a72286163ec973b1</title>
<image xlink:href="/Users/snewsted/projects/juniper-config-melter/.venv/lib/python3.12/site-packages/resources/generic/network/switch.png" width="100.8px" height="100.8px" preserveAspectRatio="xMinYMin meet" x="32" y="-9839.65"/>
<text xml:space="preserve" text-anchor="middle" x="82.4" y="-9722" font-family="Sans-Serif" font-size="13.00" fill="#2d3436">vlan</text>
</g>
<!-- 7f4803969c914033a716fd6cd3d68c95 -->
<g id="node61" class="node">
<title>7f4803969c914033a716fd6cd3d68c95</title>
<image xlink:href="/Users/snewsted/projects/juniper-config-melter/.venv/lib/python3.12/site-packages/resources/generic/network/switch.png" width="100.8px" height="100.8px" preserveAspectRatio="xMinYMin meet" x="32" y="-10019.6"/>
<text xml:space="preserve" text-anchor="middle" x="82.4" y="-9900.2" font-family="Sans-Serif" font-size="13.00" fill="#2d3436">vlan</text>
<text xml:space="preserve" text-anchor="middle" x="82.4" y="-9886.7" font-family="Sans-Serif" font-size="13.00" fill="#2d3436">192.168.254.9/24</text>
<text xml:space="preserve" text-anchor="middle" x="82.4" y="-9873.2" font-family="Sans-Serif" font-size="13.00" fill="#2d3436">this is the normal network</text>
</g>
<!-- f7870bfb489a44d1be5edd5dde2f8f5e -->
<g id="node62" class="node">
<title>f7870bfb489a44d1be5edd5dde2f8f5e</title>
<image xlink:href="/Users/snewsted/projects/juniper-config-melter/.venv/lib/python3.12/site-packages/resources/generic/network/switch.png" width="100.8px" height="100.8px" preserveAspectRatio="xMinYMin meet" x="32" y="-10266.6"/>
<text xml:space="preserve" text-anchor="middle" x="82.4" y="-10149" font-family="Sans-Serif" font-size="13.00" fill="#2d3436">xe&#45;0/1/0</text>
</g>
<!-- e4416c52f7ea4e3f882779370068d787 -->
<g id="node63" class="node">
<title>e4416c52f7ea4e3f882779370068d787</title>
<image xlink:href="/Users/snewsted/projects/juniper-config-melter/.venv/lib/python3.12/site-packages/resources/generic/network/switch.png" width="100.8px" height="100.8px" preserveAspectRatio="xMinYMin meet" x="32" y="-10417.6"/>
<text xml:space="preserve" text-anchor="middle" x="82.4" y="-10300" font-family="Sans-Serif" font-size="13.00" fill="#2d3436">xe&#45;0/1/1</text>
</g>
<!-- e6a19e3b936a466b9e5d7b62d409ba73 -->
<g id="node64" class="node">
<title>e6a19e3b936a466b9e5d7b62d409ba73</title>
<image xlink:href="/Users/snewsted/projects/juniper-config-melter/.venv/lib/python3.12/site-packages/resources/generic/network/switch.png" width="100.8px" height="100.8px" preserveAspectRatio="xMinYMin meet" x="32" y="-10568.6"/>
<text xml:space="preserve" text-anchor="middle" x="82.4" y="-10451" font-family="Sans-Serif" font-size="13.00" fill="#2d3436">xe&#45;0/1/2</text>
</g>
<!-- 69b2e0a2d8f3428db74bf7e39592a365 -->
<g id="node65" class="node">
<title>69b2e0a2d8f3428db74bf7e39592a365</title>
<image xlink:href="/Users/snewsted/projects/juniper-config-melter/.venv/lib/python3.12/site-packages/resources/generic/network/switch.png" width="100.8px" height="100.8px" preserveAspectRatio="xMinYMin meet" x="32" y="-10719.6"/>
<text xml:space="preserve" text-anchor="middle" x="82.4" y="-10602" font-family="Sans-Serif" font-size="13.00" fill="#2d3436">xe&#45;0/1/3</text>
</g>
</g>
</svg>
